<svg xmlns="http://www.w3.org/2000/svg" xmlns:xlink="http://www.w3.org/1999/xlink" width="500" zoomAndPan="magnify" viewBox="0 0 375 374.999991" height="500" preserveAspectRatio="xMidYMid meet" version="1.0"><defs><g/><linearGradient x1="0" gradientTransform="matrix(0.75, 0, 0, 0.75, 0.0000045, 0)" y1="0" x2="499.999979" gradientUnits="userSpaceOnUse" y2="0" id="94152f336b"><stop stop-opacity="1" stop-color="rgb(100%, 34.098816%, 34.098816%)" offset="0"/><stop stop-opacity="1" stop-color="rgb(99.822998%, 34.091187%, 34.356689%)" offset="0.00390625"/><stop stop-opacity="1" stop-color="rgb(99.647522%, 34.085083%, 34.614563%)" offset="0.0078125"/><stop stop-opacity="1" stop-color="rgb(99.47052%, 34.077454%, 34.870911%)" offset="0.0117187"/><stop stop-opacity="1" stop-color="rgb(99.295044%, 34.069824%, 35.128784%)" offset="0.015625"/><stop stop-opacity="1" stop-color="rgb(99.118042%, 34.062195%, 35.385132%)" offset="0.0195312"/><stop stop-opacity="1" stop-color="rgb(98.942566%, 34.054565%, 35.643005%)" offset="0.0234375"/><stop stop-opacity="1" stop-color="rgb(98.765564%, 34.046936%, 35.900879%)" offset="0.0273438"/><stop stop-opacity="1" stop-color="rgb(98.590088%, 34.039307%, 36.158752%)" offset="0.03125"/><stop stop-opacity="1" stop-color="rgb(98.413086%, 34.031677%, 36.4151%)" offset="0.0351562"/><stop stop-opacity="1" stop-color="rgb(98.23761%, 34.025574%, 36.672974%)" offset="0.0390625"/><stop stop-opacity="1" stop-color="rgb(98.060608%, 34.017944%, 36.930847%)" offset="0.0429687"/><stop stop-opacity="1" stop-color="rgb(97.885132%, 34.010315%, 37.188721%)" offset="0.046875"/><stop stop-opacity="1" stop-color="rgb(97.70813%, 34.002686%, 37.445068%)" offset="0.0507812"/><stop stop-opacity="1" stop-color="rgb(97.532654%, 33.995056%, 37.702942%)" offset="0.0546875"/><stop stop-opacity="1" stop-color="rgb(97.355652%, 33.987427%, 37.960815%)" offset="0.0585938"/><stop stop-opacity="1" stop-color="rgb(97.180176%, 33.979797%, 38.218689%)" offset="0.0625"/><stop stop-opacity="1" stop-color="rgb(97.003174%, 33.972168%, 38.475037%)" offset="0.0664062"/><stop stop-opacity="1" stop-color="rgb(96.827698%, 33.966064%, 38.73291%)" offset="0.0703125"/><stop stop-opacity="1" stop-color="rgb(96.650696%, 33.958435%, 38.989258%)" offset="0.0742187"/><stop stop-opacity="1" stop-color="rgb(96.47522%, 33.950806%, 39.247131%)" offset="0.078125"/><stop stop-opacity="1" stop-color="rgb(96.298218%, 33.943176%, 39.505005%)" offset="0.0820312"/><stop stop-opacity="1" stop-color="rgb(96.122742%, 33.935547%, 39.762878%)" offset="0.0859375"/><stop stop-opacity="1" stop-color="rgb(95.947266%, 33.927917%, 40.019226%)" offset="0.0898437"/><stop stop-opacity="1" stop-color="rgb(95.77179%, 33.921814%, 40.2771%)" offset="0.09375"/><stop stop-opacity="1" stop-color="rgb(95.594788%, 33.914185%, 40.534973%)" offset="0.0976562"/><stop stop-opacity="1" stop-color="rgb(95.419312%, 33.906555%, 40.792847%)" offset="0.101562"/><stop stop-opacity="1" stop-color="rgb(95.24231%, 33.898926%, 41.049194%)" offset="0.105469"/><stop stop-opacity="1" stop-color="rgb(95.066833%, 33.891296%, 41.307068%)" offset="0.109375"/><stop stop-opacity="1" stop-color="rgb(94.889832%, 33.883667%, 41.563416%)" offset="0.113281"/><stop stop-opacity="1" stop-color="rgb(94.714355%, 33.876038%, 41.821289%)" offset="0.117188"/><stop stop-opacity="1" stop-color="rgb(94.537354%, 33.868408%, 42.079163%)" offset="0.121094"/><stop stop-opacity="1" stop-color="rgb(94.361877%, 33.862305%, 42.337036%)" offset="0.125"/><stop stop-opacity="1" stop-color="rgb(94.184875%, 33.854675%, 42.593384%)" offset="0.128906"/><stop stop-opacity="1" stop-color="rgb(94.009399%, 33.847046%, 42.851257%)" offset="0.132812"/><stop stop-opacity="1" stop-color="rgb(93.832397%, 33.839417%, 43.109131%)" offset="0.136719"/><stop stop-opacity="1" stop-color="rgb(93.656921%, 33.831787%, 43.367004%)" offset="0.140625"/><stop stop-opacity="1" stop-color="rgb(93.479919%, 33.824158%, 43.623352%)" offset="0.144531"/><stop stop-opacity="1" stop-color="rgb(93.304443%, 33.816528%, 43.881226%)" offset="0.148437"/><stop stop-opacity="1" stop-color="rgb(93.127441%, 33.808899%, 44.137573%)" offset="0.152344"/><stop stop-opacity="1" stop-color="rgb(92.951965%, 33.802795%, 44.395447%)" offset="0.15625"/><stop stop-opacity="1" stop-color="rgb(92.774963%, 33.795166%, 44.65332%)" offset="0.160156"/><stop stop-opacity="1" stop-color="rgb(92.599487%, 33.787537%, 44.911194%)" offset="0.164062"/><stop stop-opacity="1" stop-color="rgb(92.422485%, 33.779907%, 45.167542%)" offset="0.167969"/><stop stop-opacity="1" stop-color="rgb(92.247009%, 33.772278%, 45.425415%)" offset="0.171875"/><stop stop-opacity="1" stop-color="rgb(92.071533%, 33.764648%, 45.683289%)" offset="0.175781"/><stop stop-opacity="1" stop-color="rgb(91.896057%, 33.758545%, 45.941162%)" offset="0.179687"/><stop stop-opacity="1" stop-color="rgb(91.719055%, 33.750916%, 46.19751%)" offset="0.183594"/><stop stop-opacity="1" stop-color="rgb(91.543579%, 33.743286%, 46.455383%)" offset="0.1875"/><stop stop-opacity="1" stop-color="rgb(91.366577%, 33.735657%, 46.711731%)" offset="0.191406"/><stop stop-opacity="1" stop-color="rgb(91.191101%, 33.728027%, 46.969604%)" offset="0.195312"/><stop stop-opacity="1" stop-color="rgb(91.014099%, 33.720398%, 47.227478%)" offset="0.199219"/><stop stop-opacity="1" stop-color="rgb(90.838623%, 33.712769%, 47.485352%)" offset="0.203125"/><stop stop-opacity="1" stop-color="rgb(90.661621%, 33.705139%, 47.741699%)" offset="0.207031"/><stop stop-opacity="1" stop-color="rgb(90.486145%, 33.699036%, 47.999573%)" offset="0.210938"/><stop stop-opacity="1" stop-color="rgb(90.309143%, 33.691406%, 48.257446%)" offset="0.214844"/><stop stop-opacity="1" stop-color="rgb(90.133667%, 33.683777%, 48.51532%)" offset="0.21875"/><stop stop-opacity="1" stop-color="rgb(89.956665%, 33.676147%, 48.771667%)" offset="0.222656"/><stop stop-opacity="1" stop-color="rgb(89.781189%, 33.668518%, 49.029541%)" offset="0.226562"/><stop stop-opacity="1" stop-color="rgb(89.604187%, 33.660889%, 49.287415%)" offset="0.230469"/><stop stop-opacity="1" stop-color="rgb(89.428711%, 33.653259%, 49.545288%)" offset="0.234375"/><stop stop-opacity="1" stop-color="rgb(89.251709%, 33.64563%, 49.801636%)" offset="0.238281"/><stop stop-opacity="1" stop-color="rgb(89.076233%, 33.639526%, 50.059509%)" offset="0.242188"/><stop stop-opacity="1" stop-color="rgb(88.899231%, 33.631897%, 50.315857%)" offset="0.246094"/><stop stop-opacity="1" stop-color="rgb(88.723755%, 33.624268%, 50.57373%)" offset="0.25"/><stop stop-opacity="1" stop-color="rgb(88.546753%, 33.616638%, 50.831604%)" offset="0.253906"/><stop stop-opacity="1" stop-color="rgb(88.371277%, 33.609009%, 51.089478%)" offset="0.257812"/><stop stop-opacity="1" stop-color="rgb(88.194275%, 33.601379%, 51.345825%)" offset="0.261719"/><stop stop-opacity="1" stop-color="rgb(88.018799%, 33.595276%, 51.603699%)" offset="0.265625"/><stop stop-opacity="1" stop-color="rgb(87.843323%, 33.587646%, 51.861572%)" offset="0.269531"/><stop stop-opacity="1" stop-color="rgb(87.667847%, 33.580017%, 52.119446%)" offset="0.273437"/><stop stop-opacity="1" stop-color="rgb(87.490845%, 33.572388%, 52.375793%)" offset="0.277344"/><stop stop-opacity="1" stop-color="rgb(87.315369%, 33.564758%, 52.633667%)" offset="0.28125"/><stop stop-opacity="1" stop-color="rgb(87.138367%, 33.557129%, 52.890015%)" offset="0.285156"/><stop stop-opacity="1" stop-color="rgb(86.962891%, 33.5495%, 53.147888%)" offset="0.289062"/><stop stop-opacity="1" stop-color="rgb(86.785889%, 33.54187%, 53.405762%)" offset="0.292969"/><stop stop-opacity="1" stop-color="rgb(86.610413%, 33.535767%, 53.663635%)" offset="0.296875"/><stop stop-opacity="1" stop-color="rgb(86.433411%, 33.528137%, 53.919983%)" offset="0.300781"/><stop stop-opacity="1" stop-color="rgb(86.257935%, 33.520508%, 54.177856%)" offset="0.304687"/><stop stop-opacity="1" stop-color="rgb(86.080933%, 33.512878%, 54.43573%)" offset="0.308594"/><stop stop-opacity="1" stop-color="rgb(85.905457%, 33.505249%, 54.693604%)" offset="0.3125"/><stop stop-opacity="1" stop-color="rgb(85.728455%, 33.49762%, 54.949951%)" offset="0.316406"/><stop stop-opacity="1" stop-color="rgb(85.552979%, 33.48999%, 55.207825%)" offset="0.320312"/><stop stop-opacity="1" stop-color="rgb(85.375977%, 33.482361%, 55.464172%)" offset="0.324219"/><stop stop-opacity="1" stop-color="rgb(85.2005%, 33.476257%, 55.722046%)" offset="0.328125"/><stop stop-opacity="1" stop-color="rgb(85.023499%, 33.468628%, 55.979919%)" offset="0.332031"/><stop stop-opacity="1" stop-color="rgb(84.848022%, 33.460999%, 56.237793%)" offset="0.335937"/><stop stop-opacity="1" stop-color="rgb(84.671021%, 33.453369%, 56.494141%)" offset="0.339844"/><stop stop-opacity="1" stop-color="rgb(84.495544%, 33.44574%, 56.752014%)" offset="0.34375"/><stop stop-opacity="1" stop-color="rgb(84.318542%, 33.43811%, 57.009888%)" offset="0.347656"/><stop stop-opacity="1" stop-color="rgb(84.143066%, 33.432007%, 57.267761%)" offset="0.351562"/><stop stop-opacity="1" stop-color="rgb(83.96759%, 33.424377%, 57.524109%)" offset="0.355469"/><stop stop-opacity="1" stop-color="rgb(83.792114%, 33.416748%, 57.781982%)" offset="0.359375"/><stop stop-opacity="1" stop-color="rgb(83.615112%, 33.409119%, 58.03833%)" offset="0.363281"/><stop stop-opacity="1" stop-color="rgb(83.439636%, 33.401489%, 58.296204%)" offset="0.367187"/><stop stop-opacity="1" stop-color="rgb(83.262634%, 33.39386%, 58.554077%)" offset="0.371094"/><stop stop-opacity="1" stop-color="rgb(83.087158%, 33.38623%, 58.811951%)" offset="0.375"/><stop stop-opacity="1" stop-color="rgb(82.910156%, 33.378601%, 59.068298%)" offset="0.378906"/><stop stop-opacity="1" stop-color="rgb(82.73468%, 33.372498%, 59.326172%)" offset="0.382812"/><stop stop-opacity="1" stop-color="rgb(82.557678%, 33.364868%, 59.584045%)" offset="0.386719"/><stop stop-opacity="1" stop-color="rgb(82.382202%, 33.357239%, 59.841919%)" offset="0.390625"/><stop stop-opacity="1" stop-color="rgb(82.2052%, 33.349609%, 60.098267%)" offset="0.394531"/><stop stop-opacity="1" stop-color="rgb(82.029724%, 33.34198%, 60.35614%)" offset="0.398438"/><stop stop-opacity="1" stop-color="rgb(81.852722%, 33.334351%, 60.612488%)" offset="0.402344"/><stop stop-opacity="1" stop-color="rgb(81.677246%, 33.326721%, 60.870361%)" offset="0.40625"/><stop stop-opacity="1" stop-color="rgb(81.500244%, 33.319092%, 61.128235%)" offset="0.410156"/><stop stop-opacity="1" stop-color="rgb(81.324768%, 33.312988%, 61.386108%)" offset="0.414062"/><stop stop-opacity="1" stop-color="rgb(81.147766%, 33.305359%, 61.642456%)" offset="0.417969"/><stop stop-opacity="1" stop-color="rgb(80.97229%, 33.297729%, 61.90033%)" offset="0.421875"/><stop stop-opacity="1" stop-color="rgb(80.795288%, 33.2901%, 62.158203%)" offset="0.425781"/><stop stop-opacity="1" stop-color="rgb(80.619812%, 33.282471%, 62.416077%)" offset="0.429688"/><stop stop-opacity="1" stop-color="rgb(80.44281%, 33.274841%, 62.672424%)" offset="0.433594"/><stop stop-opacity="1" stop-color="rgb(80.267334%, 33.268738%, 62.930298%)" offset="0.4375"/><stop stop-opacity="1" stop-color="rgb(80.091858%, 33.261108%, 63.188171%)" offset="0.441406"/><stop stop-opacity="1" stop-color="rgb(79.916382%, 33.253479%, 63.446045%)" offset="0.445312"/><stop stop-opacity="1" stop-color="rgb(79.73938%, 33.24585%, 63.702393%)" offset="0.449219"/><stop stop-opacity="1" stop-color="rgb(79.563904%, 33.23822%, 63.960266%)" offset="0.453125"/><stop stop-opacity="1" stop-color="rgb(79.386902%, 33.230591%, 64.216614%)" offset="0.457031"/><stop stop-opacity="1" stop-color="rgb(79.211426%, 33.222961%, 64.474487%)" offset="0.460938"/><stop stop-opacity="1" stop-color="rgb(79.034424%, 33.215332%, 64.732361%)" offset="0.464844"/><stop stop-opacity="1" stop-color="rgb(78.858948%, 33.209229%, 64.990234%)" offset="0.46875"/><stop stop-opacity="1" stop-color="rgb(78.681946%, 33.201599%, 65.246582%)" offset="0.472656"/><stop stop-opacity="1" stop-color="rgb(78.50647%, 33.19397%, 65.504456%)" offset="0.476562"/><stop stop-opacity="1" stop-color="rgb(78.329468%, 33.18634%, 65.762329%)" offset="0.480469"/><stop stop-opacity="1" stop-color="rgb(78.153992%, 33.178711%, 66.020203%)" offset="0.484375"/><stop stop-opacity="1" stop-color="rgb(77.97699%, 33.171082%, 66.27655%)" offset="0.488281"/><stop stop-opacity="1" stop-color="rgb(77.801514%, 33.163452%, 66.534424%)" offset="0.492188"/><stop stop-opacity="1" stop-color="rgb(77.624512%, 33.155823%, 66.790771%)" offset="0.496094"/><stop stop-opacity="1" stop-color="rgb(77.449036%, 33.149719%, 67.048645%)" offset="0.5"/><stop stop-opacity="1" stop-color="rgb(77.272034%, 33.14209%, 67.306519%)" offset="0.503906"/><stop stop-opacity="1" stop-color="rgb(77.096558%, 33.13446%, 67.564392%)" offset="0.507812"/><stop stop-opacity="1" stop-color="rgb(76.919556%, 33.126831%, 67.82074%)" offset="0.511719"/><stop stop-opacity="1" stop-color="rgb(76.74408%, 33.119202%, 68.078613%)" offset="0.515625"/><stop stop-opacity="1" stop-color="rgb(76.567078%, 33.111572%, 68.336487%)" offset="0.519531"/><stop stop-opacity="1" stop-color="rgb(76.391602%, 33.105469%, 68.59436%)" offset="0.523437"/><stop stop-opacity="1" stop-color="rgb(76.2146%, 33.097839%, 68.850708%)" offset="0.527344"/><stop stop-opacity="1" stop-color="rgb(76.039124%, 33.09021%, 69.108582%)" offset="0.53125"/><stop stop-opacity="1" stop-color="rgb(75.863647%, 33.082581%, 69.364929%)" offset="0.535156"/><stop stop-opacity="1" stop-color="rgb(75.688171%, 33.074951%, 69.622803%)" offset="0.539062"/><stop stop-opacity="1" stop-color="rgb(75.511169%, 33.067322%, 69.880676%)" offset="0.542969"/><stop stop-opacity="1" stop-color="rgb(75.335693%, 33.059692%, 70.13855%)" offset="0.546875"/><stop stop-opacity="1" stop-color="rgb(75.158691%, 33.052063%, 70.394897%)" offset="0.550781"/><stop stop-opacity="1" stop-color="rgb(74.983215%, 33.045959%, 70.652771%)" offset="0.554687"/><stop stop-opacity="1" stop-color="rgb(74.806213%, 33.03833%, 70.910645%)" offset="0.558594"/><stop stop-opacity="1" stop-color="rgb(74.630737%, 33.030701%, 71.168518%)" offset="0.5625"/><stop stop-opacity="1" stop-color="rgb(74.453735%, 33.023071%, 71.424866%)" offset="0.566406"/><stop stop-opacity="1" stop-color="rgb(74.278259%, 33.015442%, 71.682739%)" offset="0.570312"/><stop stop-opacity="1" stop-color="rgb(74.101257%, 33.007812%, 71.939087%)" offset="0.574219"/><stop stop-opacity="1" stop-color="rgb(73.925781%, 33.000183%, 72.19696%)" offset="0.578125"/><stop stop-opacity="1" stop-color="rgb(73.748779%, 32.992554%, 72.454834%)" offset="0.582031"/><stop stop-opacity="1" stop-color="rgb(73.573303%, 32.98645%, 72.712708%)" offset="0.585937"/><stop stop-opacity="1" stop-color="rgb(73.396301%, 32.978821%, 72.969055%)" offset="0.589844"/><stop stop-opacity="1" stop-color="rgb(73.220825%, 32.971191%, 73.226929%)" offset="0.59375"/><stop stop-opacity="1" stop-color="rgb(73.043823%, 32.963562%, 73.484802%)" offset="0.597656"/><stop stop-opacity="1" stop-color="rgb(72.868347%, 32.955933%, 73.742676%)" offset="0.601562"/><stop stop-opacity="1" stop-color="rgb(72.691345%, 32.948303%, 73.999023%)" offset="0.605469"/><stop stop-opacity="1" stop-color="rgb(72.515869%, 32.940674%, 74.256897%)" offset="0.609375"/><stop stop-opacity="1" stop-color="rgb(72.338867%, 32.933044%, 74.514771%)" offset="0.613281"/><stop stop-opacity="1" stop-color="rgb(72.163391%, 32.926941%, 74.772644%)" offset="0.617187"/><stop stop-opacity="1" stop-color="rgb(71.987915%, 32.919312%, 75.028992%)" offset="0.621094"/><stop stop-opacity="1" stop-color="rgb(71.812439%, 32.911682%, 75.286865%)" offset="0.625"/><stop stop-opacity="1" stop-color="rgb(71.635437%, 32.904053%, 75.543213%)" offset="0.628906"/><stop stop-opacity="1" stop-color="rgb(71.459961%, 32.896423%, 75.801086%)" offset="0.632812"/><stop stop-opacity="1" stop-color="rgb(71.282959%, 32.888794%, 76.05896%)" offset="0.636719"/><stop stop-opacity="1" stop-color="rgb(71.107483%, 32.88269%, 76.316833%)" offset="0.640625"/><stop stop-opacity="1" stop-color="rgb(70.930481%, 32.875061%, 76.573181%)" offset="0.644531"/><stop stop-opacity="1" stop-color="rgb(70.755005%, 32.867432%, 76.831055%)" offset="0.648437"/><stop stop-opacity="1" stop-color="rgb(70.578003%, 32.859802%, 77.088928%)" offset="0.652344"/><stop stop-opacity="1" stop-color="rgb(70.402527%, 32.852173%, 77.346802%)" offset="0.65625"/><stop stop-opacity="1" stop-color="rgb(70.225525%, 32.844543%, 77.603149%)" offset="0.660156"/><stop stop-opacity="1" stop-color="rgb(70.050049%, 32.836914%, 77.861023%)" offset="0.664062"/><stop stop-opacity="1" stop-color="rgb(69.873047%, 32.829285%, 78.117371%)" offset="0.667969"/><stop stop-opacity="1" stop-color="rgb(69.697571%, 32.823181%, 78.375244%)" offset="0.671875"/><stop stop-opacity="1" stop-color="rgb(69.520569%, 32.815552%, 78.633118%)" offset="0.675781"/><stop stop-opacity="1" stop-color="rgb(69.345093%, 32.807922%, 78.890991%)" offset="0.679687"/><stop stop-opacity="1" stop-color="rgb(69.168091%, 32.800293%, 79.147339%)" offset="0.683594"/><stop stop-opacity="1" stop-color="rgb(68.992615%, 32.792664%, 79.405212%)" offset="0.6875"/><stop stop-opacity="1" stop-color="rgb(68.815613%, 32.785034%, 79.663086%)" offset="0.691406"/><stop stop-opacity="1" stop-color="rgb(68.640137%, 32.777405%, 79.920959%)" offset="0.695312"/><stop stop-opacity="1" stop-color="rgb(68.463135%, 32.769775%, 80.177307%)" offset="0.699219"/><stop stop-opacity="1" stop-color="rgb(68.287659%, 32.763672%, 80.435181%)" offset="0.703125"/><stop stop-opacity="1" stop-color="rgb(68.112183%, 32.756042%, 80.691528%)" offset="0.707031"/><stop stop-opacity="1" stop-color="rgb(67.936707%, 32.748413%, 80.949402%)" offset="0.710937"/><stop stop-opacity="1" stop-color="rgb(67.759705%, 32.740784%, 81.207275%)" offset="0.714844"/><stop stop-opacity="1" stop-color="rgb(67.584229%, 32.733154%, 81.465149%)" offset="0.71875"/><stop stop-opacity="1" stop-color="rgb(67.407227%, 32.725525%, 81.721497%)" offset="0.722656"/><stop stop-opacity="1" stop-color="rgb(67.23175%, 32.719421%, 81.97937%)" offset="0.726562"/><stop stop-opacity="1" stop-color="rgb(67.054749%, 32.711792%, 82.237244%)" offset="0.730469"/><stop stop-opacity="1" stop-color="rgb(66.879272%, 32.704163%, 82.495117%)" offset="0.734375"/><stop stop-opacity="1" stop-color="rgb(66.702271%, 32.696533%, 82.751465%)" offset="0.738281"/><stop stop-opacity="1" stop-color="rgb(66.526794%, 32.688904%, 83.009338%)" offset="0.742187"/><stop stop-opacity="1" stop-color="rgb(66.349792%, 32.681274%, 83.265686%)" offset="0.746094"/><stop stop-opacity="1" stop-color="rgb(66.174316%, 32.673645%, 83.52356%)" offset="0.75"/><stop stop-opacity="1" stop-color="rgb(65.997314%, 32.666016%, 83.781433%)" offset="0.753906"/><stop stop-opacity="1" stop-color="rgb(65.821838%, 32.659912%, 84.039307%)" offset="0.757812"/><stop stop-opacity="1" stop-color="rgb(65.644836%, 32.652283%, 84.295654%)" offset="0.761719"/><stop stop-opacity="1" stop-color="rgb(65.46936%, 32.644653%, 84.553528%)" offset="0.765625"/><stop stop-opacity="1" stop-color="rgb(65.292358%, 32.637024%, 84.811401%)" offset="0.769531"/><stop stop-opacity="1" stop-color="rgb(65.116882%, 32.629395%, 85.069275%)" offset="0.773438"/><stop stop-opacity="1" stop-color="rgb(64.93988%, 32.621765%, 85.325623%)" offset="0.777344"/><stop stop-opacity="1" stop-color="rgb(64.764404%, 32.614136%, 85.583496%)" offset="0.78125"/><stop stop-opacity="1" stop-color="rgb(64.587402%, 32.606506%, 85.839844%)" offset="0.785156"/><stop stop-opacity="1" stop-color="rgb(64.411926%, 32.600403%, 86.097717%)" offset="0.789062"/><stop stop-opacity="1" stop-color="rgb(64.234924%, 32.592773%, 86.355591%)" offset="0.792969"/><stop stop-opacity="1" stop-color="rgb(64.059448%, 32.585144%, 86.613464%)" offset="0.796875"/><stop stop-opacity="1" stop-color="rgb(63.883972%, 32.577515%, 86.869812%)" offset="0.800781"/><stop stop-opacity="1" stop-color="rgb(63.708496%, 32.569885%, 87.127686%)" offset="0.804688"/><stop stop-opacity="1" stop-color="rgb(63.531494%, 32.562256%, 87.385559%)" offset="0.808594"/><stop stop-opacity="1" stop-color="rgb(63.356018%, 32.556152%, 87.643433%)" offset="0.8125"/><stop stop-opacity="1" stop-color="rgb(63.179016%, 32.548523%, 87.89978%)" offset="0.816406"/><stop stop-opacity="1" stop-color="rgb(63.00354%, 32.540894%, 88.157654%)" offset="0.820312"/><stop stop-opacity="1" stop-color="rgb(62.826538%, 32.533264%, 88.415527%)" offset="0.824219"/><stop stop-opacity="1" stop-color="rgb(62.651062%, 32.525635%, 88.673401%)" offset="0.828125"/><stop stop-opacity="1" stop-color="rgb(62.47406%, 32.518005%, 88.929749%)" offset="0.832031"/><stop stop-opacity="1" stop-color="rgb(62.298584%, 32.510376%, 89.187622%)" offset="0.835938"/><stop stop-opacity="1" stop-color="rgb(62.121582%, 32.502747%, 89.44397%)" offset="0.839844"/><stop stop-opacity="1" stop-color="rgb(61.946106%, 32.496643%, 89.701843%)" offset="0.84375"/><stop stop-opacity="1" stop-color="rgb(61.769104%, 32.489014%, 89.959717%)" offset="0.847656"/><stop stop-opacity="1" stop-color="rgb(61.593628%, 32.481384%, 90.21759%)" offset="0.851562"/><stop stop-opacity="1" stop-color="rgb(61.416626%, 32.473755%, 90.473938%)" offset="0.855469"/><stop stop-opacity="1" stop-color="rgb(61.24115%, 32.466125%, 90.731812%)" offset="0.859375"/><stop stop-opacity="1" stop-color="rgb(61.064148%, 32.458496%, 90.989685%)" offset="0.863281"/><stop stop-opacity="1" stop-color="rgb(60.888672%, 32.450867%, 91.247559%)" offset="0.867188"/><stop stop-opacity="1" stop-color="rgb(60.71167%, 32.443237%, 91.503906%)" offset="0.871094"/><stop stop-opacity="1" stop-color="rgb(60.536194%, 32.437134%, 91.76178%)" offset="0.875"/><stop stop-opacity="1" stop-color="rgb(60.359192%, 32.429504%, 92.018127%)" offset="0.878906"/><stop stop-opacity="1" stop-color="rgb(60.183716%, 32.421875%, 92.276001%)" offset="0.882812"/><stop stop-opacity="1" stop-color="rgb(60.00824%, 32.414246%, 92.533875%)" offset="0.886719"/><stop stop-opacity="1" stop-color="rgb(59.832764%, 32.406616%, 92.791748%)" offset="0.890625"/><stop stop-opacity="1" stop-color="rgb(59.655762%, 32.398987%, 93.048096%)" offset="0.894531"/><stop stop-opacity="1" stop-color="rgb(59.480286%, 32.392883%, 93.305969%)" offset="0.898438"/><stop stop-opacity="1" stop-color="rgb(59.303284%, 32.385254%, 93.563843%)" offset="0.902344"/><stop stop-opacity="1" stop-color="rgb(59.127808%, 32.377625%, 93.821716%)" offset="0.90625"/><stop stop-opacity="1" stop-color="rgb(58.950806%, 32.369995%, 94.078064%)" offset="0.910156"/><stop stop-opacity="1" stop-color="rgb(58.77533%, 32.362366%, 94.335938%)" offset="0.914062"/><stop stop-opacity="1" stop-color="rgb(58.598328%, 32.354736%, 94.592285%)" offset="0.917969"/><stop stop-opacity="1" stop-color="rgb(58.422852%, 32.347107%, 94.850159%)" offset="0.921875"/><stop stop-opacity="1" stop-color="rgb(58.24585%, 32.339478%, 95.108032%)" offset="0.925781"/><stop stop-opacity="1" stop-color="rgb(58.070374%, 32.333374%, 95.365906%)" offset="0.929688"/><stop stop-opacity="1" stop-color="rgb(57.893372%, 32.325745%, 95.622253%)" offset="0.933594"/><stop stop-opacity="1" stop-color="rgb(57.717896%, 32.318115%, 95.880127%)" offset="0.9375"/><stop stop-opacity="1" stop-color="rgb(57.540894%, 32.310486%, 96.138%)" offset="0.941406"/><stop stop-opacity="1" stop-color="rgb(57.365417%, 32.302856%, 96.395874%)" offset="0.945312"/><stop stop-opacity="1" stop-color="rgb(57.188416%, 32.295227%, 96.652222%)" offset="0.949219"/><stop stop-opacity="1" stop-color="rgb(57.012939%, 32.287598%, 96.910095%)" offset="0.953125"/><stop stop-opacity="1" stop-color="rgb(56.835938%, 32.279968%, 97.166443%)" offset="0.957031"/><stop stop-opacity="1" stop-color="rgb(56.660461%, 32.273865%, 97.424316%)" offset="0.960938"/><stop stop-opacity="1" stop-color="rgb(56.483459%, 32.266235%, 97.68219%)" offset="0.964844"/><stop stop-opacity="1" stop-color="rgb(56.307983%, 32.258606%, 97.940063%)" offset="0.96875"/><stop stop-opacity="1" stop-color="rgb(56.132507%, 32.250977%, 98.196411%)" offset="0.972656"/><stop stop-opacity="1" stop-color="rgb(55.957031%, 32.243347%, 98.454285%)" offset="0.976562"/><stop stop-opacity="1" stop-color="rgb(55.780029%, 32.235718%, 98.712158%)" offset="0.980469"/><stop stop-opacity="1" stop-color="rgb(55.604553%, 32.229614%, 98.970032%)" offset="0.984375"/><stop stop-opacity="1" stop-color="rgb(55.427551%, 32.221985%, 99.226379%)" offset="0.988281"/><stop stop-opacity="1" stop-color="rgb(55.252075%, 32.214355%, 99.484253%)" offset="0.992188"/><stop stop-opacity="1" stop-color="rgb(55.075073%, 32.206726%, 99.740601%)" offset="0.996094"/><stop stop-opacity="1" stop-color="rgb(54.899597%, 32.199097%, 99.998474%)" offset="1"/></linearGradient><clipPath id="d7394bd8e8"><path d="M 139 104.582031 L 236.382812 104.582031 L 236.382812 215.582031 L 139 215.582031 Z M 139 104.582031 " clip-rule="nonzero"/></clipPath></defs><rect x="-37.5" width="450" fill="#ffffff" y="-37.499999" height="449.999989" fill-opacity="1"/><rect x="-37.5" width="450" fill="#ffffff" y="-37.499999" height="449.999989" fill-opacity="1"/><rect x="-37.5" fill="url(#94152f336b)" width="450" y="-37.499999" height="449.999989"/><g clip-path="url(#d7394bd8e8)"><path fill="#f6f6f6" d="M 174.800781 104.683594 L 175.078125 104.683594 L 175.214844 104.6875 L 175.347656 104.691406 L 175.488281 104.695312 L 175.617188 104.699219 L 175.785156 104.707031 L 175.882812 104.710938 L 175.945312 104.710938 L 176.144531 104.722656 L 176.265625 104.730469 L 176.417969 104.738281 L 176.542969 104.746094 L 176.695312 104.753906 L 176.820312 104.765625 L 176.988281 104.777344 L 177.09375 104.785156 L 177.355469 104.808594 L 177.460938 104.820312 L 177.636719 104.835938 L 177.753906 104.847656 L 177.917969 104.867188 L 178.035156 104.878906 L 178.316406 104.910156 L 178.585938 104.945312 L 178.664062 104.957031 L 178.867188 104.984375 L 178.980469 105 L 179.15625 105.027344 L 179.269531 105.042969 L 179.449219 105.070312 L 179.554688 105.089844 L 179.789062 105.128906 L 179.839844 105.136719 L 180.117188 105.183594 L 180.21875 105.203125 L 180.40625 105.238281 L 180.515625 105.261719 L 180.699219 105.296875 L 180.808594 105.316406 L 181.023438 105.363281 L 181.097656 105.375 L 181.382812 105.4375 L 181.464844 105.457031 L 181.671875 105.503906 L 181.78125 105.527344 L 181.96875 105.574219 L 182.078125 105.597656 L 182.28125 105.648438 L 182.367188 105.671875 L 182.660156 105.746094 L 182.714844 105.761719 L 182.953125 105.824219 L 183.054688 105.851562 L 183.25 105.902344 L 183.359375 105.933594 L 183.5625 105.992188 L 183.9375 106.101562 L 183.953125 106.105469 L 184.25 106.195312 L 184.34375 106.226562 L 184.550781 106.289062 L 184.65625 106.324219 L 184.859375 106.390625 L 184.960938 106.421875 L 185.199219 106.503906 L 185.261719 106.523438 L 185.5625 106.625 L 185.640625 106.65625 L 185.863281 106.734375 L 185.96875 106.769531 L 186.171875 106.84375 L 186.28125 106.882812 L 186.5 106.964844 L 186.585938 106.996094 L 186.886719 107.113281 L 186.945312 107.136719 L 187.191406 107.234375 L 187.296875 107.273438 L 187.503906 107.355469 L 187.613281 107.402344 L 187.824219 107.488281 L 187.921875 107.53125 L 188.226562 107.660156 L 188.445312 107.75 L 188.484375 107.769531 L 188.691406 107.863281 L 188.730469 107.878906 L 188.925781 107.972656 L 188.941406 107.976562 L 189.144531 108.074219 L 189.191406 108.097656 L 189.386719 108.191406 L 189.425781 108.210938 L 189.597656 108.300781 L 189.632812 108.316406 L 189.816406 108.410156 L 190.050781 108.535156 L 190.105469 108.566406 L 190.238281 108.640625 L 190.304688 108.675781 L 190.457031 108.761719 L 190.542969 108.8125 L 190.640625 108.867188 L 190.695312 108.898438 L 190.785156 108.953125 L 190.847656 108.988281 C 192.734375 110.121094 194.277344 111.476562 195.53125 112.984375 L 195.863281 113.398438 L 196.679688 114.507812 L 197.046875 115.109375 L 197.40625 115.703125 L 198.207031 117.265625 L 198.316406 117.492188 L 198.886719 118.929688 C 199.109375 119.691406 199.234375 120.59375 199.265625 121.636719 C 199.277344 121.945312 200.417969 125.136719 200.410156 126.382812 C 200.402344 127.980469 198.699219 128.386719 198.699219 128.386719 C 198.699219 128.386719 199.183594 127.453125 199.191406 127.046875 C 199.210938 126.050781 198.984375 124.898438 198.929688 125.175781 C 198.671875 126.480469 198.398438 127.484375 198.109375 128.1875 C 197.816406 128.886719 197.300781 129.71875 196.5625 130.671875 C 195.820312 131.628906 194.933594 132.554688 193.902344 133.445312 C 192.875 134.339844 192.230469 135.328125 191.972656 136.410156 C 191.714844 137.496094 191.472656 138.195312 191.246094 138.515625 C 191.023438 138.835938 190.761719 139.058594 190.472656 139.183594 C 190.183594 139.3125 189.71875 139.425781 189.074219 139.519531 C 188.429688 139.613281 187.558594 140.125 186.464844 141.050781 C 185.367188 141.972656 184.433594 142.613281 183.660156 142.960938 C 182.886719 143.3125 182.242188 143.488281 181.726562 143.488281 C 181.214844 143.488281 180.777344 143.425781 180.421875 143.296875 C 180.070312 143.167969 179.472656 142.804688 178.636719 142.199219 C 177.796875 141.589844 176.992188 140.921875 176.21875 140.1875 C 175.449219 139.457031 175.011719 139.089844 174.914062 139.089844 C 174.820312 139.089844 174.480469 139.40625 173.902344 140.046875 C 173.320312 140.683594 172.902344 141.382812 172.644531 142.148438 C 172.386719 142.914062 172.175781 143.902344 172.015625 145.113281 C 171.855469 146.324219 171.773438 147.710938 171.773438 149.273438 C 171.773438 150.835938 171.855469 152.207031 172.015625 153.386719 C 172.175781 154.566406 172.417969 155.714844 172.742188 156.828125 C 173.0625 157.945312 173.386719 158.886719 173.707031 159.652344 C 174.027344 160.417969 174.480469 161.277344 175.058594 162.234375 C 175.640625 163.191406 176.21875 164.035156 176.800781 164.769531 C 177.378906 165.5 178.21875 166.363281 179.3125 167.351562 C 180.40625 168.339844 181.4375 169.136719 182.40625 169.742188 C 183.371094 170.347656 184.449219 170.90625 185.640625 171.414062 C 186.832031 171.925781 188.136719 172.371094 189.554688 172.753906 C 190.972656 173.136719 192.214844 173.390625 193.277344 173.519531 C 194.339844 173.644531 195.546875 173.675781 196.898438 173.613281 C 198.253906 173.550781 199.316406 173.4375 200.089844 173.28125 C 200.863281 173.121094 201.859375 172.785156 203.085938 172.277344 C 204.308594 171.765625 205.195312 171.351562 205.742188 171.03125 C 206.289062 170.714844 206.789062 170.347656 207.238281 169.933594 C 207.464844 169.726562 207.691406 169.519531 207.917969 169.3125 C 207.546875 169.214844 207.175781 169.121094 206.804688 169.023438 C 206.0625 168.832031 205.339844 168.5625 204.632812 168.210938 C 203.921875 167.859375 203.308594 167.445312 202.796875 166.96875 C 202.28125 166.488281 201.925781 166.105469 201.730469 165.820312 C 201.539062 165.535156 201.363281 165.117188 201.199219 164.578125 C 201.039062 164.035156 200.960938 163.523438 200.960938 163.046875 C 200.960938 162.566406 201.089844 161.996094 201.34375 161.324219 C 201.601562 160.65625 201.617188 160.113281 201.394531 159.699219 C 201.167969 159.285156 201.070312 158.917969 201.101562 158.597656 C 201.136719 158.28125 201.492188 157.867188 202.167969 157.355469 C 202.84375 156.847656 203.261719 156.320312 203.421875 155.777344 C 203.585938 155.234375 203.824219 154.628906 204.148438 153.960938 C 204.46875 153.292969 205.019531 152.511719 205.789062 151.617188 C 206.5625 150.726562 206.789062 150.070312 206.464844 149.65625 C 206.144531 149.242188 205.984375 148.890625 205.984375 148.605469 C 205.984375 148.320312 206.015625 148.144531 206.082031 148.078125 C 206.144531 148.015625 206.464844 148.046875 207.046875 148.175781 C 207.625 148.300781 208.160156 148.351562 208.640625 148.320312 C 209.125 148.285156 209.996094 148 211.25 147.457031 C 212.507812 146.914062 213.667969 146.535156 214.730469 146.308594 C 215.792969 146.085938 216.871094 145.976562 217.96875 145.976562 C 219.0625 145.976562 220.277344 146.148438 221.640625 146.359375 C 226.167969 147.058594 228.613281 148.640625 229.964844 149.695312 C 231.402344 151.070312 232.664062 152.757812 233.683594 154.8125 L 233.6875 154.820312 L 233.8125 155.074219 L 233.9375 155.339844 L 234.050781 155.59375 L 234.078125 155.652344 L 234.164062 155.84375 L 234.199219 155.933594 L 234.273438 156.101562 L 234.3125 156.199219 L 234.378906 156.363281 L 234.417969 156.464844 L 234.488281 156.644531 L 234.523438 156.726562 L 234.625 156.996094 C 235.972656 160.632812 236.371094 163.941406 236.019531 166.960938 L 235.957031 167.222656 L 235.980469 167.289062 C 233.402344 186.472656 200.5 193.921875 189.394531 199.328125 C 181.382812 203.226562 176.140625 213.707031 175.34375 215.382812 C 175.289062 215.464844 175.265625 215.507812 175.265625 215.507812 L 175.015625 215.171875 C 175.015625 215.171875 160.316406 195.171875 153.40625 186.34375 C 150.335938 182.417969 147.515625 178.660156 145.246094 174.476562 C 145.246094 174.476562 144.625 173.414062 144.625 173.414062 L 143.863281 171.859375 L 143.800781 171.902344 C 142.242188 168.652344 141 165.105469 140.199219 161.023438 L 140.132812 160.421875 C 140.132812 160.421875 140.089844 160.183594 140.089844 160.183594 C 139.179688 155.222656 138.898438 149.476562 139.417969 142.535156 C 139.847656 136.828125 141.816406 130.355469 145.132812 124.402344 L 145.417969 123.863281 L 146.917969 121.464844 L 147.789062 120.117188 L 148.574219 119.035156 L 149 118.460938 L 149.753906 117.519531 L 150.410156 116.722656 L 151.03125 116.023438 L 151.90625 115.066406 L 152.398438 114.566406 L 153.492188 113.492188 L 153.855469 113.160156 L 155.15625 112.019531 L 155.402344 111.816406 L 156.902344 110.648438 L 157.035156 110.554688 L 158.730469 109.398438 L 158.753906 109.382812 C 161.523438 107.625 164.550781 106.277344 167.816406 105.484375 L 167.832031 105.480469 L 168.039062 105.433594 L 168.058594 105.429688 C 168.339844 105.363281 168.621094 105.300781 168.90625 105.242188 L 168.933594 105.238281 L 169.128906 105.199219 L 169.171875 105.191406 L 169.363281 105.15625 L 169.390625 105.148438 L 169.59375 105.113281 C 169.667969 105.101562 169.742188 105.085938 169.816406 105.074219 L 170.011719 105.042969 L 170.050781 105.035156 L 170.234375 105.007812 L 170.296875 105 L 170.476562 104.972656 L 170.535156 104.964844 L 170.722656 104.9375 C 170.796875 104.929688 170.875 104.917969 170.949219 104.910156 L 171.136719 104.886719 L 171.183594 104.878906 L 171.355469 104.859375 L 171.601562 104.835938 L 171.6875 104.824219 L 171.855469 104.808594 L 171.925781 104.800781 L 172.097656 104.785156 L 172.28125 104.773438 L 172.332031 104.769531 L 172.492188 104.753906 L 172.589844 104.75 L 172.746094 104.738281 L 172.851562 104.734375 L 173.003906 104.722656 L 173.109375 104.71875 L 173.261719 104.710938 C 173.339844 104.707031 173.417969 104.703125 173.496094 104.703125 L 173.640625 104.695312 L 173.757812 104.691406 L 173.902344 104.6875 L 174.023438 104.6875 L 174.167969 104.683594 L 174.292969 104.683594 L 174.433594 104.679688 L 174.679688 104.679688 Z M 174.800781 104.683594 " fill-opacity="1" fill-rule="evenodd"/></g><g fill="#f6f6f6" fill-opacity="1"><g transform="translate(126.553268, 273.295041)"><g><path d="M 50.464844 11.476562 C 48.5625 12.15625 45.4375 12.496094 43.535156 11.476562 C 41.566406 10.390625 42.3125 7.402344 42.722656 5.636719 C 43.535156 1.96875 44.960938 -1.628906 46.390625 -5.160156 C 47.203125 -6.996094 47.953125 -8.898438 48.765625 -10.800781 C 48.96875 -11.207031 50.734375 -15.621094 50.667969 -15.621094 C 50.53125 -15.621094 50.328125 -15.417969 50.191406 -15.144531 C 52.570312 -20.105469 56.578125 -25.605469 55.492188 -31.515625 C 55.015625 -34.027344 53.25 -36.539062 50.464844 -36.472656 C 48.085938 -36.472656 45.914062 -34.707031 44.285156 -33.210938 C 41.226562 -30.496094 38.714844 -27.304688 36.335938 -24.042969 C 36.066406 -23.703125 34.980469 -22.074219 33.757812 -20.171875 C 34.367188 -21.191406 35.183594 -22.140625 35.863281 -23.09375 C 33.007812 -19.085938 30.496094 -14.875 28.050781 -10.664062 C 29.953125 -17.046875 33.078125 -22.957031 35.726562 -29 C 36.746094 -31.242188 38.441406 -33.28125 39.394531 -35.589844 C 40.414062 -38.101562 39.800781 -41.296875 38.101562 -43.402344 C 34.367188 -47.953125 29 -40.074219 26.761719 -37.695312 C 22.210938 -32.875 18.40625 -27.167969 14.875 -21.667969 C 15.351562 -23.160156 15.621094 -24.585938 16.164062 -26.082031 C 16.84375 -27.984375 17.589844 -29.816406 18.203125 -31.71875 C 18.882812 -33.6875 19.492188 -35.726562 20.105469 -37.695312 C 20.714844 -39.664062 21.394531 -42.3125 20.917969 -44.417969 C 20.578125 -45.914062 19.96875 -48.019531 18.882812 -49.175781 C 17.183594 -51.007812 14.804688 -50.871094 12.632812 -50.191406 C 10.664062 -49.582031 8.964844 -48.628906 7.402344 -47.339844 C 6.589844 -46.59375 5.839844 -45.847656 5.09375 -45.03125 L 4.414062 -44.078125 C 4.007812 -43.535156 4.074219 -42.992188 3.871094 -42.519531 C 3.191406 -41.023438 2.039062 -39.867188 1.5625 -38.238281 C 1.085938 -36.40625 0.949219 -33.824219 2.039062 -32.195312 C 2.582031 -31.445312 3.464844 -30.902344 4.277344 -31.582031 C 4.753906 -32.058594 4.550781 -32.535156 4.617188 -33.078125 C 4.6875 -33.484375 4.890625 -34.570312 5.160156 -35.25 C 6.382812 -38.578125 8.21875 -41.90625 10.664062 -44.488281 C 11.683594 -45.640625 12.90625 -46.730469 14.398438 -47.136719 C 16.4375 -47.613281 16.503906 -45.980469 16.234375 -44.351562 L 15.824219 -41.839844 L 15.824219 -42.519531 C 13.855469 -35.183594 10.050781 -28.390625 7.472656 -21.328125 C 6.179688 -17.863281 4.6875 -14.601562 3.261719 -11.207031 C 1.832031 -7.8125 0.203125 -3.804688 0 -0.0664062 C -0.0664062 1.222656 0.203125 2.511719 1.222656 3.328125 C 2.378906 4.277344 4.144531 4.347656 5.027344 3.125 C 5.707031 2.171875 6.042969 0.476562 6.453125 -0.609375 C 7.132812 -2.378906 7.742188 -4.144531 8.488281 -5.839844 C 9.167969 -7.675781 10.324219 -9.304688 11.34375 -11.003906 C 13.515625 -14.535156 15.691406 -18.066406 18 -21.53125 C 20.171875 -24.859375 22.34375 -28.117188 24.722656 -31.242188 C 27.101562 -34.300781 29.476562 -37.421875 32.601562 -39.734375 C 33.078125 -40.074219 34.707031 -41.363281 35.386719 -41.089844 C 35.929688 -40.886719 35.386719 -39.867188 35.183594 -39.324219 C 34.027344 -36.203125 32.535156 -33.007812 30.835938 -30.15625 C 26.894531 -23.5 22.820312 -16.027344 21.328125 -8.355469 C 20.785156 -5.773438 20.785156 -3.191406 22.820312 -1.222656 C 24.925781 0.746094 25.671875 -0.949219 26.351562 -2.851562 C 26.894531 -4.414062 28.050781 -5.773438 28.867188 -7.199219 C 30.019531 -9.101562 31.105469 -11.070312 32.328125 -13.039062 C 33.078125 -14.128906 33.621094 -15.621094 34.503906 -16.4375 C 35.929688 -17.863281 36.949219 -19.492188 38.101562 -21.121094 C 40.480469 -24.519531 42.855469 -27.777344 45.914062 -30.5625 C 46.660156 -31.242188 48.359375 -33.007812 49.511719 -32.738281 C 50.941406 -32.398438 49.378906 -30.15625 49.445312 -29.273438 L 49.921875 -30.222656 C 49.511719 -29 49.105469 -27.847656 48.628906 -26.691406 C 48.5625 -26.761719 48.835938 -27.574219 48.835938 -27.574219 C 48.5625 -27.644531 47.136719 -24.382812 46.933594 -24.042969 C 45.914062 -21.9375 44.691406 -19.832031 43.945312 -17.589844 C 43.195312 -15.554688 42.449219 -13.652344 41.566406 -11.683594 L 40.074219 -8.285156 C 39.800781 -7.539062 38.984375 -5.910156 39.191406 -5.09375 C 39.257812 -5.09375 39.324219 -5.09375 39.324219 -5.160156 L 38.984375 -3.9375 C 39.054688 -4.210938 39.121094 -4.824219 39.121094 -4.890625 C 38.851562 -4.6875 38.78125 -3.328125 38.78125 -3.328125 C 37.152344 2.378906 36.472656 8.421875 40.414062 13.515625 C 42.3125 15.960938 44.554688 17.046875 47.542969 16.234375 C 48.96875 15.894531 50.328125 15.214844 51.484375 14.261719 C 52.164062 13.652344 54.269531 11.816406 53.996094 10.730469 C 53.792969 9.644531 51.144531 11.273438 50.464844 11.476562 Z M 41.429688 -8.898438 C 42.042969 -10.121094 42.585938 -11.410156 43.128906 -12.699219 C 43.535156 -13.71875 43.808594 -15.554688 44.488281 -16.367188 C 44.691406 -16.300781 44.691406 -16.097656 44.488281 -15.691406 C 44.011719 -13.246094 42.652344 -10.527344 41.566406 -8.21875 C 40.683594 -6.25 39.800781 -4.210938 39.121094 -2.171875 C 39.800781 -4.414062 40.34375 -6.65625 41.429688 -8.898438 Z M 11.34375 -29.207031 C 12.292969 -31.445312 13.039062 -33.824219 13.992188 -36.066406 C 14.398438 -37.015625 14.875 -38.101562 15.214844 -39.191406 C 14.398438 -35.996094 13.378906 -32.804688 11.886719 -29.75 C 10.460938 -26.828125 9.167969 -23.839844 7.945312 -20.785156 C 9.035156 -23.636719 10.121094 -26.421875 11.34375 -29.207031 Z M 33.078125 -19.152344 C 31.3125 -16.300781 29.410156 -13.378906 29.410156 -13.378906 C 29.613281 -13.3125 32.125 -17.523438 33.078125 -19.152344 Z M 43.402344 -32.125 L 40.886719 -29.476562 C 41.703125 -30.429688 42.519531 -31.3125 43.402344 -32.125 Z M 38.578125 0 C 38.375 -0.0664062 38.375 -0.203125 38.578125 -0.476562 C 38.714844 -0.40625 38.714844 -0.273438 38.578125 0 Z M 40.207031 -28.664062 L 40.34375 -28.867188 L 40.34375 -28.796875 C 40.480469 -29.070312 40.683594 -29.273438 40.75 -29.339844 L 40.886719 -29.476562 L 40.75 -29.273438 L 40.546875 -29.070312 L 40.480469 -29 C 40.480469 -29 40.546875 -29 40.546875 -29.070312 L 40.480469 -29 L 40.414062 -28.867188 Z M 33.210938 -19.355469 L 33.484375 -19.765625 L 33.484375 -19.695312 Z M 33.078125 -19.152344 L 33.210938 -19.355469 C 33.210938 -19.289062 33.144531 -19.222656 33.078125 -19.152344 Z M 40.683594 -29.273438 L 40.75 -29.339844 C 40.75 -29.339844 40.75 -29.273438 40.683594 -29.273438 Z M 40.683594 -29.273438 "/></g></g></g><g fill="#f6f6f6" fill-opacity="1"><g transform="translate(183.114235, 273.295041)"><g><path d="M 17.796875 -16.707031 C 17.660156 -17.589844 16.707031 -17.320312 16.234375 -16.980469 C 15.621094 -16.574219 12.226562 -12.089844 12.496094 -11.75 C 12.699219 -11.75 12.835938 -11.75 12.972656 -11.886719 C 12.023438 -10.730469 10.257812 -9.441406 8.964844 -8.421875 C 8.21875 -7.8125 6.382812 -6.113281 5.296875 -6.65625 C 2.988281 -7.8125 7.675781 -15.960938 7.472656 -16.027344 C 7.265625 -16.097656 5.570312 -12.292969 5.230469 -11.410156 C 6.042969 -13.789062 7.132812 -16.164062 8.421875 -18.269531 C 8.355469 -18.066406 8.148438 -17.726562 8.285156 -17.726562 C 8.421875 -17.660156 9.441406 -19.085938 9.238281 -19.222656 C 9.167969 -19.222656 9.035156 -19.222656 8.964844 -19.152344 C 9.167969 -19.355469 9.507812 -19.425781 9.507812 -19.832031 C 9.507812 -20.511719 7.945312 -21.191406 7.402344 -21.394531 C 6.113281 -21.9375 4.824219 -22.074219 3.804688 -21.394531 C 2.445312 -20.578125 2.171875 -18.949219 1.628906 -17.523438 C 1.496094 -17.117188 0.203125 -12.292969 0.476562 -12.226562 C 0.609375 -12.292969 0.609375 -12.363281 0.679688 -12.496094 L 0.476562 -11.273438 C 0.40625 -11.273438 0.542969 -11.613281 0.40625 -11.613281 C -0.136719 -11.613281 0 -9.167969 0.0664062 -8.828125 C 0.339844 -7.605469 1.289062 -6.722656 2.039062 -5.707031 C 2.445312 -5.09375 2.851562 -4.484375 3.464844 -4.074219 C 4.277344 -3.464844 3.734375 -4.074219 4.277344 -3.804688 L 4.144531 -3.804688 C 4.074219 -3.394531 6.65625 -2.714844 7.199219 -2.785156 C 9.578125 -3.328125 11.273438 -6.25 12.632812 -8.082031 C 13.921875 -9.710938 15.011719 -11.34375 16.164062 -13.039062 C 16.84375 -13.921875 18.066406 -15.417969 17.796875 -16.707031 Z M 5.910156 -25.265625 C 6.042969 -25.0625 5.839844 -24.789062 6.316406 -24.519531 C 6.792969 -24.316406 7.0625 -24.585938 7.472656 -24.722656 C 8.285156 -25.0625 8.898438 -25.945312 9.507812 -26.488281 C 9.710938 -26.625 9.304688 -26.554688 9.304688 -26.554688 C 10.1875 -27.371094 9.441406 -26.421875 10.257812 -26.894531 C 11.070312 -27.441406 11.207031 -28.324219 11.886719 -29.070312 C 11.070312 -28.730469 10.460938 -28.253906 9.917969 -27.574219 C 9.238281 -26.691406 8.761719 -26.285156 8.015625 -25.808594 C 8.828125 -26.421875 9.238281 -27.03125 9.917969 -28.117188 C 10.121094 -28.324219 10.324219 -28.457031 10.59375 -28.59375 C 10.390625 -28.796875 10.390625 -29 10.664062 -29.207031 C 10.867188 -29.546875 11.273438 -29.679688 11.476562 -30.019531 C 11.816406 -30.496094 11.75 -31.105469 12.15625 -31.582031 C 12.496094 -31.855469 12.972656 -32.058594 13.246094 -32.328125 C 13.855469 -32.875 14.535156 -33.890625 14.261719 -34.773438 C 13.992188 -35.589844 13.3125 -36.609375 12.566406 -37.085938 C 11.683594 -37.558594 10.460938 -37.761719 9.507812 -37.355469 C 9.304688 -37.289062 8.488281 -37.085938 8.761719 -36.8125 C 8.828125 -36.675781 8.898438 -36.675781 9.035156 -36.675781 C 8.421875 -36.203125 7.402344 -35.386719 8.828125 -34.84375 C 8.695312 -34.707031 8.828125 -34.097656 8.828125 -34.027344 C 8.761719 -33.550781 7.8125 -31.039062 7.199219 -29.816406 L 8.015625 -31.039062 C 7.539062 -30.019531 6.996094 -29.070312 6.382812 -28.253906 C 6.792969 -29.136719 5.976562 -28.117188 5.976562 -27.914062 C 5.230469 -28.253906 5.433594 -26.148438 5.5 -25.945312 C 5.5 -25.878906 5.910156 -25.265625 5.910156 -25.265625 Z M 4.617188 -9.101562 L 4.617188 -9.035156 L 4.484375 -8.625 L 4.617188 -9.167969 C 4.6875 -9.238281 4.6875 -9.238281 4.617188 -9.101562 Z M 6.859375 -29.273438 C 6.859375 -29.273438 6.996094 -29.410156 7.132812 -29.679688 Z M 6.179688 -27.984375 C 6.179688 -27.914062 6.179688 -27.914062 6.113281 -27.847656 C 6.113281 -27.847656 6.113281 -27.914062 6.042969 -27.914062 C 6.113281 -27.914062 6.113281 -27.914062 6.179688 -27.984375 Z M 6.179688 -27.984375 "/></g></g></g><g fill="#f6f6f6" fill-opacity="1"><g transform="translate(195.94741, 273.295041)"><g><path d="M 27.847656 -16.503906 C 27.441406 -18.269531 25.808594 -15.894531 25.46875 -15.484375 L 21.734375 -10.460938 L 18.066406 -5.636719 L 16.097656 -3.125 C 15.894531 -2.851562 14.398438 -0.949219 14.535156 -0.949219 C 14.671875 -1.085938 14.875 -1.085938 15.078125 -1.289062 C 14.058594 -0.203125 10.324219 3.191406 9.644531 2.378906 C 9.101562 1.699219 10.59375 -1.15625 10.800781 -1.832031 C 11.546875 -3.804688 12.226562 -5.839844 13.039062 -7.742188 C 13.921875 -9.710938 14.941406 -11.683594 15.757812 -13.652344 C 16.574219 -15.757812 15.351562 -16.503906 13.378906 -16.980469 C 12.496094 -17.183594 11.410156 -17.183594 10.390625 -17.320312 C 10.390625 -17.25 10.460938 -17.25 10.460938 -17.25 C 11.34375 -17.117188 12.632812 -17.046875 13.71875 -16.707031 C 12.089844 -17.183594 10.050781 -16.980469 8.761719 -17.320312 C 7.878906 -17.523438 7.335938 -17.523438 7.472656 -18.542969 C 7.605469 -19.902344 9.035156 -21.328125 9.507812 -22.617188 C 9.507812 -22.550781 9.035156 -21.328125 9.101562 -21.328125 C 9.441406 -21.191406 9.984375 -23.09375 9.984375 -23.363281 C 9.917969 -23.703125 9.101562 -24.722656 9.035156 -24.316406 L 9.167969 -24.113281 C 5.910156 -26.351562 2.039062 -21.734375 2.714844 -18.40625 C 2.851562 -17.929688 3.125 -17.660156 3.328125 -17.117188 C 3.464844 -16.707031 3.328125 -16.234375 3.734375 -15.691406 C 5.160156 -13.921875 7.742188 -13.855469 9.78125 -14.261719 C 9.441406 -13.789062 5.839844 -6.179688 6.042969 -6.113281 L 5.570312 -4.414062 C 5.5 -4.484375 5.773438 -5.027344 5.636719 -5.027344 C 5.160156 -5.09375 4.210938 -1.15625 4.144531 -0.816406 C 3.871094 0.816406 3.9375 2.242188 4.617188 3.734375 C 5.027344 4.6875 5.5 5.5 6.382812 6.042969 C 7.199219 6.589844 8.21875 6.859375 9.167969 6.65625 C 9.507812 6.519531 10.800781 5.636719 10.460938 5.707031 L 10.933594 5.5 C 10.867188 5.570312 10.800781 5.636719 10.800781 5.707031 C 11.003906 5.773438 14.128906 3.261719 14.535156 2.988281 C 16.707031 1.15625 18.472656 -1.085938 20.105469 -3.328125 C 21.734375 -5.636719 23.433594 -7.945312 24.996094 -10.257812 C 25.742188 -11.34375 26.421875 -12.429688 26.964844 -13.582031 C 27.371094 -14.398438 28.050781 -15.554688 27.847656 -16.503906 Z M 7.539062 -8.355469 C 8.015625 -9.578125 8.558594 -10.730469 9.167969 -11.886719 C 9.304688 -12.089844 10.257812 -14.535156 10.730469 -14.671875 C 10.390625 -14.46875 8.964844 -11.140625 8.625 -10.527344 L 7.335938 -7.539062 C 6.65625 -5.910156 5.910156 -4.210938 5.433594 -2.445312 C 5.910156 -4.484375 6.722656 -6.453125 7.539062 -8.355469 Z M 5.910156 4.6875 C 6.316406 5.230469 6.859375 5.773438 7.605469 6.042969 C 6.996094 5.839844 6.453125 5.5 6.042969 5.09375 C 6.113281 5.09375 6.113281 5.160156 6.113281 5.230469 C 5.707031 4.6875 5.160156 3.53125 5.09375 3.328125 C 4.890625 2.511719 4.824219 1.5625 4.890625 0.746094 C 4.890625 0.0664062 4.957031 -0.476562 5.09375 -1.085938 L 5.09375 -1.019531 C 4.957031 -0.136719 4.890625 0.746094 4.957031 1.699219 L 4.957031 2.039062 C 4.890625 1.96875 4.890625 1.902344 4.890625 1.902344 C 4.890625 1.902344 4.890625 1.96875 4.957031 2.105469 L 4.957031 2.171875 L 5.230469 3.601562 L 5.027344 2.714844 C 5.160156 3.125 5.5 3.871094 5.839844 4.617188 L 5.773438 4.550781 C 5.773438 4.617188 5.839844 4.6875 5.910156 4.753906 Z M 7.8125 -17.726562 C 8.148438 -17.457031 8.761719 -17.386719 9.371094 -17.320312 C 8.828125 -17.386719 8.355469 -17.523438 8.015625 -17.796875 C 8.015625 -17.796875 7.605469 -18.132812 7.539062 -18.269531 C 7.539062 -18.132812 7.675781 -17.796875 7.8125 -17.726562 Z M 14.941406 -12.429688 L 13.515625 -9.441406 L 14.941406 -12.496094 Z M 5.160156 -1.289062 C 5.160156 -1.222656 5.09375 -1.15625 5.09375 -1.085938 L 5.09375 -1.15625 C 5.09375 -1.222656 5.160156 -1.222656 5.160156 -1.289062 Z M 15.011719 -12.632812 L 15.011719 -12.566406 L 14.941406 -12.566406 Z M 15.011719 -12.632812 L 15.011719 -12.566406 L 14.941406 -12.566406 Z M 5.230469 -2.171875 C 5.230469 -2.242188 5.296875 -2.308594 5.296875 -2.445312 C 5.296875 -2.308594 5.230469 -2.242188 5.230469 -2.171875 Z M 5.5 4.074219 C 5.5 4.074219 5.570312 4.144531 5.570312 4.210938 C 5.570312 4.144531 5.5 4.144531 5.5 4.074219 Z M 7.605469 -18.40625 C 7.539062 -18.40625 7.539062 -18.339844 7.539062 -18.339844 Z M 7.605469 -18.40625 "/></g></g></g><g fill="#f6f6f6" fill-opacity="1"><g transform="translate(218.829818, 273.295041)"><g><path d="M 34.570312 -16.367188 C 34.503906 -17.863281 33.28125 -16.574219 32.875 -16.027344 C 31.988281 -14.738281 31.175781 -13.378906 30.359375 -12.089844 C 28.527344 -9.304688 26.691406 -6.519531 24.585938 -3.871094 C 17.589844 4.753906 22.480469 -10.59375 21.9375 -10.460938 C 21.667969 -10.390625 21.460938 -9.371094 21.394531 -9.167969 C 21.9375 -11.613281 22.957031 -14.535156 24.246094 -16.910156 C 24.996094 -18.40625 25.878906 -19.628906 24.519531 -21.257812 C 22.007812 -24.316406 19.085938 -21.53125 17.457031 -19.425781 C 16.777344 -22.007812 15.417969 -25.808594 12.089844 -25.808594 C 10.59375 -25.808594 9.710938 -25.0625 8.695312 -24.179688 C 8.082031 -23.773438 7.605469 -23.703125 7.0625 -23.230469 C 6.179688 -22.617188 5.570312 -21.667969 4.957031 -20.851562 C 2.648438 -17.457031 1.019531 -13.175781 0.273438 -9.238281 C -0.0664062 -7.335938 -0.203125 -5.230469 0.339844 -3.328125 C 0.679688 -2.242188 1.902344 0.203125 3.464844 0 C 3.53125 0 3.394531 -0.0664062 3.191406 -0.203125 C 4.144531 0.0664062 5.230469 -0.0664062 6.042969 -0.609375 C 6.113281 -0.476562 5.296875 -0.136719 5.296875 -0.136719 C 6.042969 1.019531 11.613281 -5.707031 12.023438 -6.316406 C 12.90625 -7.539062 13.515625 -8.828125 14.332031 -10.121094 C 14.941406 -11.070312 15.894531 -12.292969 16.574219 -13.3125 C 16.503906 -12.835938 16.503906 -12.226562 16.503906 -12.226562 C 15.28125 -8.355469 14.128906 -4.144531 15.757812 -0.136719 C 16.503906 1.902344 18.339844 3.804688 20.648438 3.394531 C 22.683594 3.054688 24.382812 1.085938 25.605469 -0.476562 C 27.101562 -2.242188 28.390625 -4.210938 29.679688 -6.25 C 30.769531 -8.082031 31.785156 -9.917969 32.667969 -11.953125 C 33.210938 -13.246094 34.707031 -14.804688 34.570312 -16.367188 Z M 15.078125 -15.894531 C 14.738281 -15.417969 14.398438 -14.941406 14.128906 -14.46875 L 12.363281 -11.953125 C 11.207031 -10.257812 9.984375 -8.625 8.695312 -7.0625 C 8.355469 -6.589844 6.722656 -4.484375 6.042969 -4.6875 C 5.027344 -5.027344 6.113281 -8.558594 6.25 -9.101562 C 6.453125 -10.050781 10.050781 -20.511719 11.003906 -20.714844 C 9.78125 -20.785156 5.839844 -8.488281 5.636719 -7.472656 C 6.179688 -10.800781 7.402344 -14.058594 8.761719 -17.117188 C 9.507812 -18.679688 11.207031 -22.820312 13.449219 -22.820312 C 14.671875 -22.820312 14.941406 -20.308594 15.144531 -19.492188 C 15.078125 -19.628906 14.46875 -21.597656 14.398438 -21.53125 C 14.058594 -21.257812 15.417969 -17.523438 15.417969 -16.980469 C 15.417969 -16.4375 15.417969 -16.4375 15.078125 -15.894531 Z M 16.640625 -12.566406 C 16.640625 -12.566406 16.84375 -13.515625 16.910156 -13.71875 L 17.25 -14.195312 Z M 15.621094 -16.777344 L 15.621094 -17.457031 C 15.824219 -17.183594 15.824219 -16.980469 15.621094 -16.777344 Z M 15.621094 -16.777344 "/></g></g></g><g fill="#faf8f7" fill-opacity="1"><g transform="translate(88.622637, 239.827729)"><g><path d="M -4.78125 -9.796875 L -3.875 -7.96875 L -4.984375 -7.109375 L -6.3125 -5.875 L -5.203125 -3.515625 L -4.125 -1.390625 L -2.421875 -1.59375 L -0.953125 -1.96875 L -0.09375 -0.203125 L -13.078125 1.25 L -14.09375 -0.828125 Z M -7.546875 -4.71875 L -11.859375 -0.65625 L -11.796875 -0.53125 L -5.828125 -1.203125 L -6.625 -2.953125 Z M -7.546875 -4.71875 "/></g></g></g><g fill="#faf8f7" fill-opacity="1"><g transform="translate(81.35826, 223.396769)"><g/></g></g><g fill="#faf8f7" fill-opacity="1"><g transform="translate(78.350947, 214.065853)"><g><path d="M -7.796875 -5.921875 C -7.804688 -6.785156 -7.609375 -7.472656 -7.203125 -7.984375 C -6.804688 -8.492188 -6.21875 -8.832031 -5.4375 -9 C -3.132812 -9.488281 -1.617188 -8.007812 -0.890625 -4.5625 C -0.640625 -3.382812 -0.457031 -2.410156 -0.34375 -1.640625 L -0.34375 -1.625 L -4 -0.984375 L -12.390625 0.9375 L -13.21875 -2.796875 C -13.46875 -3.960938 -13.40625 -4.921875 -13.03125 -5.671875 C -12.65625 -6.429688 -11.988281 -6.910156 -11.03125 -7.109375 C -10.34375 -7.253906 -9.726562 -7.21875 -9.1875 -7 C -8.644531 -6.789062 -8.179688 -6.429688 -7.796875 -5.921875 Z M -10.375 -5.171875 C -10.976562 -5.046875 -11.375 -4.78125 -11.5625 -4.375 C -11.75 -3.976562 -11.757812 -3.382812 -11.59375 -2.59375 L -11.3125 -1.3125 L -7.609375 -2.0625 L -7.96875 -3.984375 C -8.21875 -4.515625 -8.535156 -4.875 -8.921875 -5.0625 C -9.316406 -5.257812 -9.800781 -5.296875 -10.375 -5.171875 Z M -2.453125 -4.578125 C -2.648438 -5.503906 -2.976562 -6.175781 -3.4375 -6.59375 C -3.894531 -7.019531 -4.460938 -7.164062 -5.140625 -7.03125 C -6.222656 -6.800781 -6.703125 -5.972656 -6.578125 -4.546875 L -6.09375 -2.34375 L -4.53125 -2.65625 L -2.234375 -3.21875 C -2.296875 -3.71875 -2.367188 -4.171875 -2.453125 -4.578125 Z M -2.453125 -4.578125 "/></g></g></g><g fill="#faf8f7" fill-opacity="1"><g transform="translate(75.297194, 197.106429)"><g><path d="M -2.234375 -8.8125 L -2.078125 -8.953125 L -0.546875 -8.90625 L -0.09375 -1.65625 L -3.8125 -1.546875 L -12.390625 -0.90625 L -12.84375 -8.1875 L -12.6875 -8.3125 L -11.15625 -8.25 L -11.0625 -5.328125 L -10.890625 -3.015625 L -7.296875 -3.171875 L -7.40625 -5.375 L -7.59375 -7.40625 L -7.4375 -7.5625 L -5.921875 -7.5 L -5.828125 -5.3125 L -5.671875 -3.265625 L -4.09375 -3.328125 L -1.828125 -3.53125 L -1.953125 -5.859375 Z M -2.234375 -8.8125 "/></g></g></g><g fill="#faf8f7" fill-opacity="1"><g transform="translate(74.737588, 181.048258)"><g><path d="M 0.96875 -10.859375 L 0.796875 -8.828125 L -0.609375 -8.671875 L -2.359375 -8.296875 L -2.640625 -5.703125 L -2.796875 -3.328125 L -1.265625 -2.609375 L 0.203125 -2.171875 L 0.015625 -0.21875 L -11.859375 -5.6875 L -11.640625 -7.984375 Z M -4.015625 -7.9375 L -9.8125 -6.6875 L -9.828125 -6.546875 L -4.359375 -4.03125 L -4.140625 -5.96875 Z M -4.015625 -7.9375 "/></g></g></g><g fill="#faf8f7" fill-opacity="1"><g transform="translate(76.884633, 163.328382)"><g><path d="M -10.59375 -9.078125 C -10.289062 -10.296875 -9.75 -11.300781 -8.96875 -12.09375 L -7.359375 -11.328125 L -7.359375 -11.125 C -8.203125 -10.457031 -8.75 -9.617188 -9 -8.609375 C -9.269531 -7.523438 -9.101562 -6.597656 -8.5 -5.828125 C -7.90625 -5.066406 -6.875 -4.503906 -5.40625 -4.140625 C -3.914062 -3.765625 -2.703125 -3.773438 -1.765625 -4.171875 C -0.835938 -4.566406 -0.242188 -5.300781 0.015625 -6.375 C 0.148438 -6.894531 0.1875 -7.4375 0.125 -8 C 0.0703125 -8.5625 -0.0625 -9.101562 -0.28125 -9.625 L -0.109375 -9.765625 L 1.59375 -9.203125 C 1.863281 -8.003906 1.867188 -6.882812 1.609375 -5.84375 C 1.191406 -4.164062 0.351562 -3 -0.90625 -2.34375 C -2.175781 -1.695312 -3.78125 -1.613281 -5.71875 -2.09375 C -7.695312 -2.582031 -9.109375 -3.429688 -9.953125 -4.640625 C -10.804688 -5.859375 -11.019531 -7.335938 -10.59375 -9.078125 Z M -10.59375 -9.078125 "/></g></g></g><g fill="#faf8f7" fill-opacity="1"><g transform="translate(81.267893, 147.385181)"><g><path d="M -9.03125 -10.640625 C -8.375 -12.203125 -7.382812 -13.203125 -6.0625 -13.640625 C -4.738281 -14.085938 -3.179688 -13.929688 -1.390625 -13.171875 C 0.535156 -12.359375 1.832031 -11.273438 2.5 -9.921875 C 3.175781 -8.578125 3.160156 -7.066406 2.453125 -5.390625 C 1.796875 -3.835938 0.796875 -2.847656 -0.546875 -2.421875 C -1.898438 -2.003906 -3.492188 -2.1875 -5.328125 -2.96875 C -7.222656 -3.769531 -8.488281 -4.832031 -9.125 -6.15625 C -9.769531 -7.488281 -9.738281 -8.984375 -9.03125 -10.640625 Z M -7.609375 -9.875 C -8.066406 -8.800781 -8.0625 -7.851562 -7.59375 -7.03125 C -7.125 -6.21875 -6.171875 -5.507812 -4.734375 -4.90625 C -3.160156 -4.25 -1.898438 -4.023438 -0.953125 -4.234375 C -0.015625 -4.441406 0.675781 -5.082031 1.125 -6.15625 C 1.582031 -7.226562 1.570312 -8.171875 1.09375 -8.984375 C 0.613281 -9.804688 -0.363281 -10.53125 -1.84375 -11.15625 C -3.375 -11.800781 -4.601562 -12.015625 -5.53125 -11.796875 C -6.46875 -11.585938 -7.160156 -10.945312 -7.609375 -9.875 Z M -7.609375 -9.875 "/></g></g></g><g fill="#faf8f7" fill-opacity="1"><g transform="translate(89.046146, 130.288966)"><g><path d="M 3.0625 -11.609375 L 6.203125 -9.671875 L 5.046875 -7.875 L -5.84375 -7.984375 L -5.90625 -7.875 L -1.625 -5.109375 L 1.875 -2.921875 L 0.90625 -1.40625 L -2.109375 -3.453125 L -9.453125 -8.078125 L -8.3125 -9.84375 L 2.578125 -9.75 L 2.65625 -9.875 L -5.046875 -14.765625 L -4.171875 -16.390625 Z M 3.0625 -11.609375 "/></g></g></g><g fill="#faf8f7" fill-opacity="1"><g transform="translate(100.414294, 113.997283)"><g/></g></g><g fill="#faf8f7" fill-opacity="1"><g transform="translate(106.940788, 106.637655)"><g><path d="M -4.671875 -10.28125 L -2.046875 -7.4375 L -0.609375 -8.734375 L 0.828125 -10.171875 L 1.03125 -10.140625 L 1.953125 -8.9375 L 0.328125 -7.484375 L -0.96875 -6.25 L -0.0625 -5.265625 L 2.671875 -2.515625 L 1.203125 -1.140625 L -1.25 -3.90625 L -7.25 -10.09375 L -2.25 -14.8125 L -2.046875 -14.78125 L -1.09375 -13.546875 L -3.25 -11.65625 Z M -4.671875 -10.28125 "/></g></g></g><g fill="#faf8f7" fill-opacity="1"><g transform="translate(118.163299, 96.525024)"><g><path d="M -1.9375 -13.84375 C -0.539062 -14.800781 0.832031 -15.113281 2.1875 -14.78125 C 3.550781 -14.445312 4.785156 -13.476562 5.890625 -11.875 C 7.085938 -10.15625 7.601562 -8.546875 7.4375 -7.046875 C 7.28125 -5.546875 6.453125 -4.273438 4.953125 -3.234375 C 3.566406 -2.273438 2.191406 -1.976562 0.828125 -2.34375 C -0.523438 -2.707031 -1.765625 -3.707031 -2.890625 -5.34375 C -4.066406 -7.039062 -4.570312 -8.625 -4.40625 -10.09375 C -4.238281 -11.5625 -3.414062 -12.8125 -1.9375 -13.84375 Z M -1.140625 -12.421875 C -2.097656 -11.753906 -2.597656 -10.953125 -2.640625 -10.015625 C -2.679688 -9.078125 -2.257812 -7.96875 -1.375 -6.6875 C -0.40625 -5.289062 0.53125 -4.425781 1.4375 -4.09375 C 2.34375 -3.757812 3.273438 -3.925781 4.234375 -4.59375 C 5.191406 -5.257812 5.691406 -6.066406 5.734375 -7.015625 C 5.773438 -7.960938 5.335938 -9.09375 4.421875 -10.40625 C 3.472656 -11.78125 2.546875 -12.625 1.640625 -12.9375 C 0.742188 -13.257812 -0.179688 -13.085938 -1.140625 -12.421875 Z M -1.140625 -12.421875 "/></g></g></g><g fill="#faf8f7" fill-opacity="1"><g transform="translate(133.950049, 86.289596)"><g><path d="M 4.46875 -7.59375 C 5.84375 -6.707031 7.410156 -5.800781 9.171875 -4.875 L 9.25 -4.671875 C 8.78125 -4.210938 8.269531 -3.816406 7.71875 -3.484375 L 7.4375 -3.53125 C 5.738281 -4.644531 4.332031 -5.601562 3.21875 -6.40625 L 1.328125 -5.5 L 1.546875 -5.03125 L 3.3125 -1.578125 L 1.5 -0.71875 L 0.015625 -4.109375 L -3.796875 -11.828125 L -0.046875 -13.640625 C 1.066406 -14.179688 2.066406 -14.316406 2.953125 -14.046875 C 3.835938 -13.773438 4.523438 -13.125 5.015625 -12.09375 C 5.367188 -11.34375 5.488281 -10.578125 5.375 -9.796875 C 5.269531 -9.015625 4.96875 -8.28125 4.46875 -7.59375 Z M 0.6875 -6.96875 L 2.59375 -7.828125 C 3.59375 -8.742188 3.796875 -9.816406 3.203125 -11.046875 C 2.898438 -11.703125 2.492188 -12.109375 1.984375 -12.265625 C 1.484375 -12.421875 0.867188 -12.335938 0.140625 -12.015625 L -1.296875 -11.25 Z M 0.6875 -6.96875 "/></g></g></g><g fill="#faf8f7" fill-opacity="1"><g transform="translate(150.146569, 79.286157)"><g/></g></g><g fill="#faf8f7" fill-opacity="1"><g transform="translate(159.504562, 76.350592)"><g><path d="M 5.078125 -4.640625 L 5.875 -1.203125 L 3.953125 -0.8125 L 3.328125 -4.28125 L 3.171875 -5.015625 L -2.265625 -12.109375 L -0.203125 -12.53125 L 0.203125 -11.828125 L 3.609375 -7.28125 L 3.75 -7.3125 L 5.375 -12.875 L 5.515625 -13.71875 L 7.546875 -14.125 L 4.9375 -5.484375 Z M 5.078125 -4.640625 "/></g></g></g><g fill="#faf8f7" fill-opacity="1"><g transform="translate(176.191466, 73.369396)"><g><path d="M 5.75 -12.734375 C 7.4375 -12.804688 8.765625 -12.335938 9.734375 -11.328125 C 10.703125 -10.328125 11.226562 -8.859375 11.3125 -6.921875 C 11.40625 -4.828125 10.984375 -3.1875 10.046875 -2 C 9.109375 -0.8125 7.734375 -0.175781 5.921875 -0.09375 C 4.234375 -0.0195312 2.910156 -0.5 1.953125 -1.53125 C 0.992188 -2.570312 0.472656 -4.085938 0.390625 -6.078125 C 0.296875 -8.128906 0.710938 -9.726562 1.640625 -10.875 C 2.578125 -12.03125 3.945312 -12.648438 5.75 -12.734375 Z M 5.65625 -11.109375 C 4.488281 -11.054688 3.640625 -10.644531 3.109375 -9.875 C 2.578125 -9.101562 2.34375 -7.945312 2.40625 -6.40625 C 2.476562 -4.695312 2.8125 -3.457031 3.40625 -2.6875 C 4 -1.925781 4.878906 -1.570312 6.046875 -1.625 C 7.210938 -1.675781 8.0625 -2.09375 8.59375 -2.875 C 9.125 -3.65625 9.351562 -4.847656 9.28125 -6.453125 C 9.207031 -8.109375 8.875 -9.3125 8.28125 -10.0625 C 7.6875 -10.8125 6.8125 -11.160156 5.65625 -11.109375 Z M 5.65625 -11.109375 "/></g></g></g><g fill="#faf8f7" fill-opacity="1"><g transform="translate(194.986589, 73.088092)"><g><path d="M 11.40625 -4.703125 L 11.203125 -3.265625 C 11.046875 -1.765625 10.5 -0.65625 9.5625 0.0625 C 8.625 0.789062 7.382812 1.0625 5.84375 0.875 C 4.363281 0.695312 3.273438 0.160156 2.578125 -0.734375 C 1.890625 -1.628906 1.648438 -2.804688 1.859375 -4.265625 L 2.09375 -5.9375 L 2.8125 -12.0625 L 4.75 -11.8125 L 3.75 -4.296875 C 3.601562 -3.234375 3.734375 -2.410156 4.140625 -1.828125 C 4.554688 -1.242188 5.238281 -0.894531 6.1875 -0.78125 C 8.09375 -0.539062 9.160156 -1.421875 9.390625 -3.421875 L 10.25 -11.140625 L 12.21875 -10.90625 Z M 11.40625 -4.703125 "/></g></g></g><g fill="#faf8f7" fill-opacity="1"><g transform="translate(213.433057, 75.928858)"><g><path d="M 8.375 -2.703125 C 8.820312 -1.128906 9.394531 0.585938 10.09375 2.453125 L 10.015625 2.671875 C 9.367188 2.703125 8.722656 2.65625 8.078125 2.53125 L 7.90625 2.3125 C 7.363281 0.351562 6.945312 -1.296875 6.65625 -2.640625 L 4.640625 -3.21875 L 4.5 -2.71875 L 3.53125 1.03125 L 1.59375 0.46875 L 2.734375 -3.0625 L 5.03125 -11.359375 L 9.03125 -10.234375 C 10.21875 -9.890625 11.050781 -9.316406 11.53125 -8.515625 C 12.019531 -7.722656 12.101562 -6.78125 11.78125 -5.6875 C 11.550781 -4.894531 11.140625 -4.242188 10.546875 -3.734375 C 9.953125 -3.222656 9.226562 -2.878906 8.375 -2.703125 Z M 5.140625 -4.765625 L 7.140625 -4.125 C 8.503906 -4.132812 9.375 -4.796875 9.75 -6.109375 C 9.957031 -6.796875 9.921875 -7.367188 9.640625 -7.828125 C 9.367188 -8.285156 8.859375 -8.632812 8.109375 -8.875 L 6.515625 -9.265625 Z M 5.140625 -4.765625 "/></g></g></g><g fill="#faf8f7" fill-opacity="1"><g transform="translate(230.184877, 81.473768)"><g/></g></g><g fill="#faf8f7" fill-opacity="1"><g transform="translate(239.11828, 85.345706)"><g><path d="M 12.09375 7.328125 L 10.578125 6.421875 L 12.3125 3.09375 L 14.703125 -1.984375 L 14.59375 -2.046875 L 7.765625 3.125 L 6.40625 2.296875 L 8.015625 -6.03125 L 7.875 -6.125 L 4.59375 -1.796875 L 2.296875 1.390625 L 0.875 0.53125 L 8.359375 -9.34375 L 10.296875 -8.171875 L 9.8125 -6.28125 L 8.453125 0.53125 L 8.59375 0.609375 L 14.140625 -3.734375 L 15.5625 -4.96875 L 17.484375 -3.8125 Z M 12.09375 7.328125 "/></g></g></g><g fill="#faf8f7" fill-opacity="1"><g transform="translate(257.271984, 97.183602)"><g><path d="M 12.984375 -5.171875 C 14.253906 -4.046875 14.882812 -2.785156 14.875 -1.390625 C 14.875 0.00390625 14.226562 1.429688 12.9375 2.890625 C 11.550781 4.460938 10.109375 5.347656 8.609375 5.546875 C 7.117188 5.753906 5.691406 5.253906 4.328125 4.046875 C 3.054688 2.929688 2.4375 1.664062 2.46875 0.25 C 2.5 -1.15625 3.175781 -2.601562 4.5 -4.09375 C 5.863281 -5.632812 7.28125 -6.5 8.75 -6.6875 C 10.21875 -6.875 11.628906 -6.367188 12.984375 -5.171875 Z M 11.796875 -4.0625 C 10.921875 -4.832031 10.019531 -5.125 9.09375 -4.9375 C 8.175781 -4.757812 7.203125 -4.085938 6.171875 -2.921875 C 5.046875 -1.640625 4.429688 -0.519531 4.328125 0.4375 C 4.222656 1.394531 4.609375 2.257812 5.484375 3.03125 C 6.359375 3.800781 7.253906 4.09375 8.171875 3.90625 C 9.097656 3.71875 10.09375 3.023438 11.15625 1.828125 C 12.257812 0.578125 12.859375 -0.519531 12.953125 -1.46875 C 13.054688 -2.414062 12.671875 -3.28125 11.796875 -4.0625 Z M 11.796875 -4.0625 "/></g></g></g><g fill="#faf8f7" fill-opacity="1"><g transform="translate(270.959256, 110.125194)"><g><path d="M 15.1875 -0.671875 L 13.96875 0.15625 L 12.640625 -1.609375 L 11.984375 -2.40625 L 6.59375 1.90625 L 3.6875 4.453125 L 2.40625 2.90625 L 5.34375 0.640625 L 10.71875 -3.9375 L 10.0625 -4.734375 L 8.53125 -6.40625 L 8.578125 -6.625 L 9.8125 -7.453125 L 15.234375 -0.890625 Z M 15.1875 -0.671875 "/></g></g></g><g fill="#faf8f7" fill-opacity="1"><g transform="translate(280.908826, 122.748437)"><g><path d="M 9.15625 7.921875 L 5.84375 9.9375 L 4.84375 8.234375 L 8.078125 6.453125 L 9.5 5.578125 L 7.921875 2.859375 L 6.453125 0.390625 L 5.171875 1.125 L 1.859375 3.171875 L 0.859375 1.46875 L 4.09375 -0.34375 L 11.46875 -4.78125 L 12.484375 -3.078125 L 7.890625 -0.4375 L 9.375 2.171875 L 10.921875 4.71875 L 15.453125 1.984375 L 16.46875 3.71875 Z M 9.15625 7.921875 "/></g></g></g><g fill="#faf8f7" fill-opacity="1"><g transform="translate(290.35528, 140.120991)"><g><path d="M 4.828125 7.71875 L 4.703125 7.890625 L 3.25 8.3125 L 0.609375 1.546875 L 4.109375 0.3125 L 12.078125 -2.9375 L 14.734375 3.859375 L 14.625 4.03125 L 13.140625 4.4375 L 12.15625 1.703125 L 11.296875 -0.46875 L 7.921875 0.78125 L 8.703125 2.84375 L 9.5 4.71875 L 9.390625 4.921875 L 7.9375 5.328125 L 7.1875 3.28125 L 6.40625 1.359375 L 4.90625 1.90625 L 2.8125 2.796875 L 3.65625 4.984375 Z M 4.828125 7.71875 "/></g></g></g><g fill="#faf8f7" fill-opacity="1"><g transform="translate(295.794803, 155.240004)"><g><path d="M 6.421875 6.015625 C 5.253906 7.171875 4.023438 8.507812 2.734375 10.03125 L 2.53125 10.0625 C 2.1875 9.5 1.910156 8.910156 1.703125 8.296875 L 1.8125 8.03125 C 3.269531 6.601562 4.507812 5.441406 5.53125 4.546875 L 5.0625 2.5 L 4.5625 2.609375 L 0.8125 3.578125 L 0.359375 1.609375 L 4 0.921875 L 12.359375 -1.109375 L 13.328125 2.953125 C 13.597656 4.160156 13.503906 5.164062 13.046875 5.96875 C 12.585938 6.78125 11.800781 7.3125 10.6875 7.5625 C 9.882812 7.738281 9.113281 7.6875 8.375 7.40625 C 7.644531 7.132812 6.992188 6.671875 6.421875 6.015625 Z M 6.640625 2.1875 L 7.078125 4.265625 C 7.753906 5.429688 8.753906 5.863281 10.078125 5.5625 C 10.785156 5.40625 11.269531 5.097656 11.53125 4.640625 C 11.789062 4.179688 11.84375 3.5625 11.6875 2.78125 L 11.265625 1.203125 Z M 6.640625 2.1875 "/></g></g></g><g fill="#faf8f7" fill-opacity="1"><g transform="translate(299.224797, 172.387234)"><g><path d="M 4.53125 11.234375 L 0.671875 11.515625 L 0.546875 9.546875 L 4.265625 9.421875 L 5.921875 9.296875 L 5.75 6.15625 L 5.5625 3.296875 L 4.078125 3.375 L 0.21875 3.671875 L 0.09375 1.703125 L 3.8125 1.5625 L 12.390625 0.984375 L 12.515625 2.96875 L 7.203125 3.21875 L 7.359375 6.21875 L 7.5625 9.1875 L 12.84375 8.828125 L 12.96875 10.828125 Z M 4.53125 11.234375 "/></g></g></g><g fill="#faf8f7" fill-opacity="1"><g transform="translate(299.772526, 192.110436)"><g><path d="M 11.671875 7.65625 C 11.484375 9.34375 10.816406 10.582031 9.671875 11.375 C 8.523438 12.175781 6.984375 12.46875 5.046875 12.25 C 2.972656 12.019531 1.421875 11.347656 0.390625 10.234375 C -0.640625 9.128906 -1.050781 7.675781 -0.84375 5.875 C -0.65625 4.195312 0.0234375 2.960938 1.203125 2.171875 C 2.378906 1.390625 3.957031 1.113281 5.9375 1.34375 C 7.976562 1.570312 9.492188 2.234375 10.484375 3.328125 C 11.484375 4.429688 11.878906 5.875 11.671875 7.65625 Z M 10.109375 7.328125 C 10.234375 6.171875 9.953125 5.265625 9.265625 4.609375 C 8.585938 3.960938 7.476562 3.550781 5.9375 3.375 C 4.238281 3.1875 2.960938 3.320312 2.109375 3.78125 C 1.265625 4.25 0.78125 5.0625 0.65625 6.21875 C 0.519531 7.382812 0.796875 8.289062 1.484375 8.9375 C 2.179688 9.582031 3.328125 10 4.921875 10.1875 C 6.578125 10.375 7.820312 10.234375 8.65625 9.765625 C 9.488281 9.304688 9.972656 8.492188 10.109375 7.328125 Z M 10.109375 7.328125 "/></g></g></g><g fill="#faf8f7" fill-opacity="1"><g transform="translate(297.107019, 210.715537)"><g><path d="M 10.25 9.5 C 9.769531 11.132812 8.898438 12.25 7.640625 12.84375 C 6.378906 13.4375 4.8125 13.460938 2.9375 12.921875 C 0.925781 12.347656 -0.488281 11.425781 -1.3125 10.15625 C -2.144531 8.894531 -2.3125 7.390625 -1.8125 5.640625 C -1.34375 4.023438 -0.46875 2.925781 0.8125 2.34375 C 2.101562 1.757812 3.707031 1.742188 5.625 2.296875 C 7.601562 2.867188 8.988281 3.78125 9.78125 5.03125 C 10.582031 6.28125 10.738281 7.769531 10.25 9.5 Z M 8.734375 8.90625 C 9.054688 7.78125 8.929688 6.835938 8.359375 6.078125 C 7.796875 5.328125 6.769531 4.738281 5.28125 4.3125 C 3.644531 3.84375 2.375 3.765625 1.46875 4.078125 C 0.5625 4.398438 -0.0507812 5.125 -0.375 6.25 C -0.695312 7.363281 -0.570312 8.296875 0 9.046875 C 0.5625 9.804688 1.613281 10.410156 3.15625 10.859375 C 4.757812 11.316406 6.007812 11.382812 6.90625 11.0625 C 7.800781 10.738281 8.410156 10.019531 8.734375 8.90625 Z M 8.734375 8.90625 "/></g></g></g><g fill="#faf8f7" fill-opacity="1"><g transform="translate(291.392405, 228.617657)"><g><path d="M 8.421875 11.078125 C 7.660156 12.671875 6.625 13.675781 5.3125 14.09375 C 4.007812 14.507812 2.507812 14.3125 0.8125 13.5 C -1.125 12.5625 -2.390625 11.378906 -2.984375 9.953125 C -3.578125 8.523438 -3.453125 6.929688 -2.609375 5.171875 C -2.367188 4.679688 -2.078125 4.09375 -1.734375 3.40625 C -1.390625 2.71875 -1.050781 2.082031 -0.71875 1.5 L 2.578125 3.21875 L 10.375 6.828125 Z M -1.34375 6.15625 C -1.851562 7.21875 -1.890625 8.195312 -1.453125 9.09375 C -1.023438 9.988281 -0.101562 10.78125 1.3125 11.46875 C 2.738281 12.15625 3.921875 12.394531 4.859375 12.1875 C 5.796875 11.976562 6.523438 11.328125 7.046875 10.234375 C 7.347656 9.609375 7.679688 8.847656 8.046875 7.953125 L 1.953125 4.875 L -0.140625 3.953125 C -0.378906 4.347656 -0.609375 4.75 -0.828125 5.15625 C -1.046875 5.5625 -1.21875 5.894531 -1.34375 6.15625 Z M -1.34375 6.15625 "/></g></g></g><path fill="#ffffff" d="M 319.742188 184.296875 C 319.683594 212.355469 310.324219 240.175781 293.769531 262.78125 C 277.992188 284.363281 255.796875 301.03125 230.664062 310.085938 C 204.566406 319.5 175.652344 320.578125 148.960938 313.265625 C 123.105469 306.128906 99.652344 291.199219 82.195312 270.8125 C 64.558594 250.1875 53.398438 224.40625 50.582031 197.425781 C 47.582031 168.585938 55.078125 138.90625 70.496094 114.445312 C 84.714844 91.839844 105.648438 73.734375 130.0625 62.882812 C 155.5 51.609375 184.292969 48.492188 211.585938 54.007812 C 237.859375 59.285156 262.277344 72.59375 281.050781 91.722656 C 299.949219 110.96875 312.84375 135.730469 317.644531 162.289062 C 319.023438 169.84375 319.742188 177.519531 319.742188 185.195312 C 319.742188 187.234375 319.804688 185.253906 319.742188 184.296875 C 319.683594 156.773438 311.886719 129.914062 296.289062 107.128906 C 280.570312 84.226562 257.835938 66.359375 231.800781 56.707031 C 204.808594 46.691406 174.695312 45.613281 146.980469 53.707031 C 120.226562 61.503906 96.230469 77.691406 78.894531 99.574219 C 61.5 121.519531 51.359375 148.621094 49.980469 176.5625 C 48.660156 203.363281 54.238281 229.984375 67.675781 253.304688 C 81.414062 277.230469 102.53125 296.714844 127.542969 308.46875 C 153.699219 320.757812 183.691406 324.238281 212.007812 318.421875 C 239.300781 312.84375 264.496094 298.632812 283.511719 278.25 C 302.648438 257.804688 315.066406 231.480469 318.664062 203.722656 C 319.445312 197.546875 319.804688 191.371094 319.804688 185.136719 C 319.804688 184.175781 319.742188 182.195312 319.742188 184.296875 Z M 319.742188 184.296875 " fill-opacity="1" fill-rule="nonzero"/><path fill="#ffffff" d="M 221.84375 314.523438 C 195.03125 320.757812 166.714844 318.839844 141.101562 308.707031 C 116.207031 298.816406 94.492188 281.546875 79.375 259.421875 C 63.238281 235.859375 54.300781 206.417969 56.039062 177.761719 C 57.71875 150.71875 67.796875 124.457031 84.472656 103.113281 C 118.726562 59.34375 178.292969 40.816406 231.324219 57.542969 C 256.578125 65.519531 279.253906 80.929688 295.867188 101.554688 C 313.566406 123.4375 324.003906 150.777344 325.5625 178.839844 C 328.683594 234.480469 292.570312 287.78125 241.398438 308.347656 C 235.042969 310.867188 228.503906 312.90625 221.84375 314.523438 C 221.605469 314.582031 222.023438 317.460938 221.84375 317.519531 C 249.558594 310.867188 274.691406 295.695312 293.289062 274.050781 C 311.464844 252.886719 322.742188 226.144531 325.261719 198.386719 C 327.660156 171.882812 322.921875 144.902344 310.6875 121.21875 C 297.847656 96.335938 277.152344 75.890625 252.199219 63.121094 C 227.125 50.230469 198.210938 45.554688 170.316406 49.871094 C 142 54.246094 115.425781 67.679688 95.152344 88.003906 C 75.535156 107.730469 62.277344 133.453125 57.660156 160.910156 C 53.28125 186.933594 56.21875 214.394531 66.476562 238.738281 C 77.335938 264.519531 96.351562 286.523438 120.226562 301.210938 C 144.222656 315.902344 172.65625 322.917969 200.730469 320.757812 C 207.867188 320.21875 214.886719 319.082031 221.84375 317.460938 C 222.085938 317.460938 221.664062 314.582031 221.84375 314.523438 Z M 221.84375 314.523438 " fill-opacity="1" fill-rule="nonzero"/><path fill="#ffffff" d="M 251.839844 302.230469 C 226.703125 315.722656 197.371094 320.820312 169.175781 316.921875 C 142.300781 313.203125 116.6875 301.511719 96.472656 283.40625 C 75.476562 264.699219 60.539062 239.394531 54.238281 211.996094 C 48.121094 185.496094 50.160156 157.3125 59.9375 131.953125 C 69.835938 106.289062 87.53125 83.867188 110.269531 68.335938 C 134.5625 51.730469 164.738281 44.113281 194.011719 46.09375 C 221.066406 47.890625 247.339844 57.785156 268.816406 74.332031 C 291.191406 91.601562 307.804688 115.824219 316.085938 142.804688 C 324.0625 168.828125 323.941406 197.007812 315.964844 222.96875 C 307.925781 249.109375 291.96875 272.613281 270.554688 289.640625 C 264.496094 294.496094 257.957031 298.875 251.117188 302.59375 C 249.257812 303.609375 251 302.710938 251.839844 302.230469 C 276.371094 288.921875 296.589844 268.957031 309.425781 244.074219 C 322.324219 219.011719 327.300781 190.109375 323.34375 162.171875 C 319.265625 133.210938 305.707031 105.871094 285.132812 85.066406 C 265.273438 64.917969 239.179688 51.371094 211.347656 46.453125 C 183.394531 41.535156 154.238281 45.554688 128.625 57.785156 C 104.089844 69.535156 82.972656 87.34375 68.636719 110.546875 C 53.878906 134.410156 46.683594 162.652344 48.300781 190.589844 C 49.980469 219.851562 61.320312 248.269531 80.15625 270.753906 C 98.332031 292.398438 123.164062 308.046875 150.519531 315.183594 C 177.992188 322.378906 207.507812 320.757812 234.023438 310.566406 C 239.902344 308.289062 245.597656 305.589844 251.179688 302.59375 C 251.957031 302.230469 253.757812 301.210938 251.839844 302.230469 Z M 251.839844 302.230469 " fill-opacity="1" fill-rule="nonzero"/><path fill="#ffffff" d="M 88.3125 277.710938 C 69.777344 256.785156 57.898438 230.644531 54.601562 202.882812 C 51.421875 175.902344 56.339844 148.199219 68.816406 124.039062 C 82.074219 98.257812 104.089844 76.070312 130.484375 63.839844 C 155.4375 52.269531 183.753906 48.609375 210.867188 53.167969 C 266.476562 62.582031 311.765625 106.769531 322.382812 162.171875 C 327.421875 188.550781 324.601562 216.253906 314.226562 241.015625 C 303.246094 267.335938 283.871094 289.820312 259.578125 304.808594 C 211.40625 334.429688 146.378906 327.894531 103.308594 292.21875 C 97.972656 287.722656 92.992188 282.867188 88.3125 277.710938 C 88.132812 277.53125 85.792969 279.328125 85.613281 279.148438 C 104.929688 300.671875 130.605469 315.78125 158.917969 321.898438 C 186.570312 327.894531 215.90625 325.074219 241.941406 313.925781 C 266.714844 303.25 288.550781 286.042969 303.785156 263.738281 C 319.804688 240.296875 328.140625 211.9375 327.480469 183.574219 C 326.820312 154.976562 317.105469 126.914062 299.769531 104.132812 C 282.191406 80.988281 257.417969 63.71875 229.460938 55.445312 C 202.46875 47.410156 173.015625 47.953125 146.320312 57.066406 C 120.945312 65.757812 97.789062 81.589844 80.996094 102.511719 C 63.238281 124.636719 52.742188 152.21875 51.179688 180.578125 C 49.621094 209.117188 57.121094 237.777344 72.535156 261.820312 C 76.433594 267.9375 80.875 273.691406 85.671875 279.089844 C 85.851562 279.328125 88.191406 277.53125 88.3125 277.710938 Z M 88.3125 277.710938 " fill-opacity="1" fill-rule="nonzero"/></svg>